<svg xmlns="http://www.w3.org/2000/svg" version="1.1" xmlns:xlink="http://www.w3.org/1999/xlink" width="1500" height="212" viewBox="0 0 1500 212"><svg xml:space="preserve" width="1500" height="212" data-version="2" data-id="lg_AHnuEGwBUMNBtsdf2y" viewBox="0 0 569 212" x="0" y="0"><rect width="100%" height="100%" fill="transparent"></rect><path d="m38.09 204.89 2.72-12.85h6.51l-.28 1.32h-5.03l-.89 4.16h4.71l-.25 1.3h-4.72l-1.02 4.75h5.04l-.29 1.32Z"></path><rect width="9.23" height="12.85" x="-4.62" y="-6.42" fill="none" rx="0" ry="0" transform="translate(43.2 198.97)"></rect><path d="m47.14 204.89 2.05-9.63h1.2l-.23 1.86h.09q.31-.46.76-.93.45-.47 1.04-.79.6-.32 1.35-.32 1.02 0 1.55.59t.61 1.61h.06q.36-.54.85-1.04.49-.51 1.12-.83.63-.33 1.38-.33 1.12 0 1.73.61.6.61.6 1.76 0 .41-.05.78-.04.37-.14.75l-1.25 5.91h-1.48l1.31-6.06q.07-.4.11-.69.04-.29.04-.55 0-.59-.31-.93-.32-.35-.98-.35-.46 0-.97.26-.5.25-.97.77-.47.51-.84 1.29-.38.79-.61 1.84l-.94 4.42h-1.46l1.28-6.04q.08-.4.12-.7.04-.29.04-.5 0-.63-.29-.98-.29-.36-.95-.36-.46 0-.97.25-.5.25-.98.77-.47.53-.87 1.35-.4.81-.63 1.97l-.9 4.24Z"></path><rect width="14.16" height="9.81" x="-7.08" y="-4.91" fill="none" rx="0" ry="0" transform="translate(54.72 200.49)"></rect><path d="m61.94 209.2 2.94-13.94h1.2l-.24 1.87h.06q.41-.54.91-1.01.5-.46 1.09-.74.59-.28 1.3-.28.79 0 1.38.37.58.38.91 1.11.33.73.33 1.82 0 1.04-.2 2.02-.21.98-.61 1.82-.39.84-.97 1.48-.57.64-1.31.99-.74.36-1.63.36-.67 0-1.16-.24-.49-.25-.82-.64-.33-.4-.52-.85h-.08q-.04.32-.11.84-.08.53-.15.88l-.88 4.14Zm5.06-5.35q.61 0 1.13-.3.51-.31.92-.84.41-.53.69-1.24.29-.7.44-1.49.15-.79.15-1.61 0-1.02-.41-1.54t-1.22-.52q-.42 0-.85.21t-.83.58q-.41.37-.76.88-.35.51-.61 1.13-.26.61-.41 1.3-.15.68-.15 1.4 0 .93.47 1.49.47.55 1.44.55"></path><rect width="9.88" height="14.1" x="-4.94" y="-7.05" fill="none" rx="0" ry="0" transform="translate(67.38 202.65)"></rect><path d="M77.16 205.03q-1.11 0-1.91-.45-.8-.45-1.23-1.28-.42-.83-.42-1.97 0-.91.2-1.8.2-.9.6-1.69.39-.8.98-1.41.58-.61 1.35-.96.76-.34 1.7-.34 1.13 0 1.92.45.8.45 1.22 1.29.43.83.43 1.97 0 .9-.2 1.79-.19.89-.59 1.68-.39.8-.97 1.41-.59.61-1.35.96-.77.35-1.73.35m.09-1.21q.54 0 1.03-.23.5-.23.9-.66.4-.44.7-1.07.29-.63.46-1.42.16-.8.16-1.76 0-.57-.2-1.11-.21-.54-.65-.88-.45-.35-1.2-.35-.62 0-1.14.25-.52.26-.93.72-.42.47-.7 1.1-.29.64-.44 1.39-.16.76-.16 1.59 0 1.15.57 1.79.56.64 1.6.64"></path><rect width="8.4" height="9.9" x="-4.2" y="-4.95" fill="none" rx="0" ry="0" transform="translate(78.3 200.58)"></rect><path d="m84.29 204.89-.42-9.63h1.44l.16 5.32q.03.95.01 1.72-.03.76-.06 1.27h.06q.14-.37.34-.85.2-.49.41-.98.22-.5.4-.89l2.65-5.59h1.56l.35 5.33q.02.66.04 1.49t0 1.49h.06q.15-.44.35-.98.2-.54.46-1.14.25-.61.52-1.24l2.23-4.95h1.55l-4.48 9.63h-1.74l-.32-5.41q-.03-.46-.03-.89-.01-.43 0-.89v-.99h-.07q-.16.43-.31.81-.15.38-.34.8-.19.42-.46 1l-2.64 5.57Z"></path><rect width="12.53" height="9.63" x="-6.26" y="-4.82" fill="none" rx="0" ry="0" transform="translate(90.64 200.57)"></rect><path d="M100.1 205.07q-1.08 0-1.87-.44-.78-.43-1.2-1.25-.41-.81-.41-1.94 0-1.17.34-2.3.33-1.13.97-2.05.63-.92 1.52-1.46.89-.55 2-.55 1.33 0 2.01.6.69.59.69 1.63 0 .73-.34 1.34-.34.62-1.04 1.07-.69.45-1.76.7-1.07.25-2.53.25h-.33q-.02.16-.03.35-.02.2-.02.36 0 1.16.56 1.82.57.65 1.69.65.7 0 1.32-.19.62-.2 1.29-.53v1.26q-.65.3-1.31.49t-1.55.19m-1.74-5.59h.21q1.12 0 2.06-.2t1.52-.65q.57-.45.57-1.21 0-.49-.34-.81-.33-.31-1.02-.31-.6 0-1.19.37t-1.07 1.08q-.48.72-.74 1.73"></path><rect width="7.53" height="9.99" x="-3.77" y="-5" fill="none" rx="0" ry="0" transform="translate(100.89 200.57)"></rect><path d="m105.2 204.89 2.05-9.63h1.2l-.23 1.86h.09q.37-.5.79-.97.42-.47.96-.77.54-.3 1.24-.3.27 0 .54.03t.51.1l-.32 1.31q-.23-.05-.46-.08-.22-.02-.46-.02-.67 0-1.24.35-.57.34-1.02.92-.46.58-.77 1.29-.31.72-.47 1.46l-.94 4.45Z"></path><rect width="7.15" height="9.81" x="-3.58" y="-4.91" fill="none" rx="0" ry="0" transform="translate(109.28 200.49)"></rect><path d="m112.31 204.89 2.05-9.63h1.47l-2.05 9.63Zm3.28-11.32q-.35 0-.58-.21-.23-.2-.23-.58 0-.29.11-.55.12-.25.35-.4.22-.16.55-.16.38 0 .58.2.19.21.19.57 0 .52-.3.82-.3.31-.67.31"></path><rect width="4.25" height="13.22" x="-2.13" y="-6.61" fill="none" rx="0" ry="0" transform="translate(114.94 198.78)"></rect><path d="m116.8 204.89 2.06-9.68h1.29l-.22 1.86h.01q.34-.46.81-.93.47-.47 1.1-.79.62-.32 1.42-.32.78 0 1.33.29.56.28.85.82.3.54.3 1.31 0 .4-.06.81-.06.42-.13.74l-1.28 5.89h-1.56l1.3-6.08q.08-.4.13-.68t.05-.52q0-.62-.34-.94-.33-.31-.98-.31-.64 0-1.35.44-.72.44-1.32 1.38-.61.95-.94 2.47l-.91 4.24Z"></path><rect width="8.95" height="9.86" x="-4.47" y="-4.93" fill="none" rx="0" ry="0" transform="translate(121.78 200.46)"></rect><path d="M129.51 209.22q-1.7 0-2.66-.65-.96-.65-.96-1.82 0-.94.64-1.63t2.04-1.15q-.33-.18-.5-.45-.17-.26-.17-.62 0-.59.44-1.03.44-.43 1.23-.8-.57-.29-.91-.85-.34-.57-.34-1.3.01-.87.3-1.59.29-.72.82-1.23.49-.47 1.15-.74.66-.26 1.45-.26.33 0 .66.04.34.05.66.14h3.26l-.21.88-1.91.2q.2.27.3.64.1.37.09.82 0 .86-.29 1.55-.29.7-.82 1.18-.49.43-1.15.66-.66.24-1.48.24-.24 0-.42-.01-.19-.02-.32-.06-.64.23-.95.54-.31.31-.31.65 0 .25.15.4.14.13.39.19.26.07.62.11l1.04.12q1.06.12 1.72.42.67.29.99.79.31.5.31 1.24 0 .93-.43 1.61t-1.24 1.11q-.61.32-1.41.49-.81.17-1.78.17m.06-1.07q.8 0 1.43-.14.62-.14 1.06-.4.48-.29.73-.71.25-.41.25-.95 0-.23-.08-.43-.07-.19-.23-.34-.24-.24-.7-.39-.46-.14-1.16-.21l-1.41-.14q-.74.16-1.23.47-.5.32-.75.75-.26.43-.26.96 0 .72.6 1.13.6.4 1.75.4m1.64-7.66q.76 0 1.28-.38.52-.39.8-1.02.29-.64.29-1.4 0-.38-.11-.67-.1-.29-.3-.49-.19-.2-.49-.3-.29-.11-.67-.11-.55 0-.99.21-.44.22-.75.6-.3.38-.46.88-.16.5-.16 1.07 0 .37.09.66.1.29.28.49.41.46 1.19.46"></path><rect width="10.73" height="14.12" x="-5.37" y="-7.06" fill="none" rx="0" ry="0" transform="translate(131.75 202.66)"></rect><path d="m143.48 204.89 1.05-4.83-2.13-8.02h1.48l1.61 6.55 4.34-6.55h1.68l-5.53 8.06-1 4.79Z"></path><rect width="9.11" height="12.85" x="-4.55" y="-6.42" fill="none" rx="0" ry="0" transform="translate(147.46 198.97)"></rect><path d="M154.29 205.03q-1.11 0-1.91-.45-.8-.45-1.22-1.28-.43-.83-.43-1.97 0-.91.2-1.8.21-.9.6-1.69.4-.8.98-1.41.59-.61 1.35-.96.76-.34 1.71-.34 1.12 0 1.92.45.79.45 1.22 1.29.42.83.42 1.97 0 .9-.19 1.79-.2.89-.59 1.68-.39.8-.98 1.41-.58.61-1.35.96-.77.35-1.73.35m.09-1.21q.54 0 1.04-.23.49-.23.89-.66.41-.44.7-1.07.3-.63.46-1.42.16-.8.16-1.76 0-.57-.2-1.11-.2-.54-.65-.88-.45-.35-1.2-.35-.61 0-1.14.25-.52.26-.93.72-.41.47-.7 1.1-.29.64-.44 1.39-.15.76-.15 1.59 0 1.15.56 1.79.56.64 1.6.64"></path><rect width="8.4" height="9.9" x="-4.2" y="-4.95" fill="none" rx="0" ry="0" transform="translate(155.43 200.58)"></rect><path d="M163.39 205.07q-.73 0-1.28-.28-.54-.27-.84-.8-.29-.53-.29-1.3 0-.39.06-.76.05-.36.12-.76l1.28-5.91h1.47l-1.3 6.08q-.08.38-.11.67-.04.3-.04.53 0 .62.32.97.32.34 1.02.34.66 0 1.38-.44.73-.45 1.35-1.41.62-.97.94-2.51l.9-4.23h1.44l-2.04 9.63h-1.2l.24-1.86h-.08q-.34.45-.81.93-.48.47-1.1.79-.62.32-1.43.32"></path><rect width="8.83" height="9.81" x="-4.42" y="-4.91" fill="none" rx="0" ry="0" transform="translate(165.9 200.66)"></rect><path d="m170.87 204.89 2.04-9.63h1.2l-.23 1.86h.09q.37-.5.79-.97.42-.47.96-.77.54-.3 1.25-.3.26 0 .53.03.28.03.51.1l-.31 1.31q-.24-.05-.47-.08-.22-.02-.46-.02-.66 0-1.24.35-.57.34-1.02.92-.45.58-.76 1.29-.32.72-.47 1.46l-.95 4.45Z"></path><rect width="7.14" height="9.81" x="-3.57" y="-4.91" fill="none" rx="0" ry="0" transform="translate(174.94 200.49)"></rect><path d="M185.5 205.07q-.96 0-1.68-.14t-1.33-.43v-1.47q.55.28 1.3.51.74.23 1.73.23.6 0 1.16-.14.55-.14.99-.44.43-.29.68-.76.25-.47.25-1.11 0-.52-.22-.92t-.71-.77q-.48-.37-1.26-.8-.67-.4-1.2-.83-.54-.44-.84-1.02-.31-.59-.31-1.42 0-.9.33-1.59.34-.69.92-1.16.59-.47 1.35-.71.76-.24 1.61-.24 1.01 0 1.76.2.74.2 1.44.54l-.57 1.27q-.49-.26-1.18-.48-.69-.21-1.45-.21-.55 0-1.03.14-.48.15-.84.44-.36.29-.57.71-.2.43-.2.99 0 .57.22.95.21.38.63.69.42.3 1.03.66.79.46 1.38.91.6.46.94 1.05.33.59.33 1.49 0 .97-.34 1.69-.34.73-.96 1.2-.63.48-1.48.73-.85.24-1.88.24"></path><rect width="8.98" height="13.21" x="-4.49" y="-6.61" fill="none" rx="0" ry="0" transform="translate(187.48 198.97)"></rect><path d="M194.62 205.07q-.73 0-1.28-.28-.54-.27-.84-.8-.29-.53-.29-1.3 0-.39.05-.76.06-.36.13-.76l1.28-5.91h1.47l-1.31 6.08q-.07.38-.11.67-.04.3-.04.53 0 .62.32.97.33.34 1.03.34.66 0 1.38-.44.73-.45 1.35-1.41.62-.97.94-2.51l.9-4.23h1.44l-2.04 9.63h-1.2l.23-1.86h-.08q-.33.45-.8.93-.48.47-1.1.79-.63.32-1.43.32"></path><rect width="8.83" height="9.81" x="-4.42" y="-4.91" fill="none" rx="0" ry="0" transform="translate(197.13 200.66)"></rect><path d="M206.03 205.07q-1.07 0-1.87-.41-.81-.41-1.25-1.21-.45-.8-.45-1.99 0-1.02.23-1.97.22-.95.65-1.75.43-.8 1.05-1.4.61-.6 1.4-.93.79-.33 1.72-.33.62 0 1.24.12t1.12.34l-.41 1.23q-.37-.18-.87-.32t-1.07-.14q-.8 0-1.46.41-.65.4-1.12 1.12-.47.71-.73 1.64-.25.92-.25 1.97 0 .74.26 1.28.27.54.76.83.5.29 1.19.29.64 0 1.21-.17.57-.18 1.11-.42v1.24q-.48.25-1.1.41-.62.16-1.36.16"></path><rect width="7.41" height="9.99" x="-3.71" y="-5" fill="none" rx="0" ry="0" transform="translate(206.66 200.57)"></rect><path d="M214.19 205.07q-1.07 0-1.88-.41-.8-.41-1.25-1.21-.44-.8-.44-1.99 0-1.02.22-1.97.23-.95.66-1.75.43-.8 1.04-1.4.62-.6 1.41-.93.78-.33 1.71-.33.63 0 1.25.12t1.12.34l-.41 1.23q-.37-.18-.87-.32-.51-.14-1.08-.14-.8 0-1.45.41-.66.4-1.13 1.12-.47.71-.72 1.64-.26.92-.26 1.97 0 .74.27 1.28.26.54.76.83.49.29 1.19.29.64 0 1.21-.17.56-.18 1.11-.42v1.24q-.48.25-1.1.41-.62.16-1.36.16"></path><rect width="7.41" height="9.99" x="-3.71" y="-5" fill="none" rx="0" ry="0" transform="translate(214.82 200.57)"></rect><path d="M222.27 205.07q-1.09 0-1.87-.44-.78-.43-1.2-1.25-.42-.81-.42-1.94 0-1.17.34-2.3t.97-2.05q.64-.92 1.53-1.46.89-.55 2-.55 1.33 0 2.01.6.69.59.69 1.63 0 .73-.34 1.34-.34.62-1.04 1.07-.7.45-1.76.7-1.07.25-2.53.25h-.34q-.01.16-.03.35-.01.2-.01.36 0 1.16.56 1.82.57.65 1.69.65.69 0 1.31-.19.62-.2 1.3-.53v1.26q-.65.3-1.31.49t-1.55.19m-1.74-5.59h.21q1.12 0 2.06-.2t1.51-.65q.57-.45.57-1.21 0-.49-.33-.81-.33-.31-1.02-.31-.61 0-1.19.37-.59.37-1.07 1.08-.48.72-.74 1.73"></path><rect width="7.54" height="9.99" x="-3.77" y="-5" fill="none" rx="0" ry="0" transform="translate(223.05 200.57)"></rect><path d="M229.67 205.07q-.88 0-1.55-.18-.66-.17-1.15-.44v-1.35q.46.28 1.18.53.72.24 1.47.24t1.25-.2q.49-.2.74-.56.25-.35.25-.83 0-.38-.16-.65-.16-.28-.53-.54-.36-.27-.97-.61-.67-.38-1.14-.77-.47-.38-.71-.84-.24-.47-.24-1.08 0-.83.4-1.43.41-.61 1.14-.94.74-.34 1.72-.34.87 0 1.61.2.74.2 1.27.45l-.47 1.17q-.46-.22-1.05-.4-.59-.19-1.36-.19-.83 0-1.31.38-.49.38-.49 1.02 0 .33.14.6.15.26.51.52t.98.6q.61.35 1.1.72.49.36.77.83.29.47.29 1.16 0 .94-.45 1.6-.45.65-1.28.99-.83.34-1.96.34"></path><rect width="7.28" height="9.99" x="-3.64" y="-5" fill="none" rx="0" ry="0" transform="translate(231.11 200.57)"></rect><path d="M237.43 205.07q-.88 0-1.55-.18-.66-.17-1.15-.44v-1.35q.46.28 1.18.53.72.24 1.47.24t1.25-.2q.49-.2.74-.56.25-.35.25-.83 0-.38-.16-.65-.16-.28-.53-.54-.36-.27-.97-.61-.67-.38-1.14-.77-.47-.38-.71-.84-.24-.47-.24-1.08 0-.83.41-1.43.4-.61 1.13-.94.74-.34 1.72-.34.87 0 1.61.2.74.2 1.27.45l-.47 1.17q-.46-.22-1.05-.4-.58-.19-1.36-.19-.82 0-1.31.38-.49.38-.49 1.02 0 .33.14.6.15.26.51.52t.98.6q.61.35 1.1.72.49.36.77.83.29.47.29 1.16 0 .94-.45 1.6-.45.65-1.28.99-.83.34-1.96.34"></path><rect width="7.28" height="9.99" x="-3.64" y="-5" fill="none" rx="0" ry="0" transform="translate(238.87 200.57)"></rect><path d="M241.61 207.21q.33-.73.66-1.51.32-.77.61-1.52t.52-1.38h1.59l.07.2q-.29.64-.68 1.37-.38.73-.81 1.46-.42.73-.84 1.38Z"></path><rect width="3.45" height="4.41" x="-1.73" y="-2.21" fill="none" rx="0" ry="0" transform="translate(243.84 205.5)"></rect><path d="M257.58 205.07q-1.55 0-2.61-.62-1.06-.61-1.59-1.74-.54-1.12-.54-2.64 0-1.1.2-2.13.2-1.03.58-1.95.37-.92.93-1.68.56-.76 1.28-1.31t1.6-.86q.87-.3 1.89-.3 2.16 0 3.38 1.34 1.22 1.34 1.22 3.72 0 1.07-.18 2.08-.17 1.02-.53 1.93-.35.91-.88 1.67-.52.76-1.23 1.32-.7.55-1.58.86-.88.31-1.94.31m.05-1.31q.76 0 1.4-.27.64-.26 1.16-.73.53-.48.93-1.12.4-.64.67-1.41.27-.77.41-1.62.14-.86.14-1.74 0-1.76-.83-2.74-.83-.97-2.3-.97-.75 0-1.4.25-.65.25-1.19.71-.53.46-.94 1.09-.41.64-.69 1.41-.28.77-.43 1.63-.14.86-.14 1.78 0 1.16.37 2 .38.83 1.1 1.28.72.45 1.74.45"></path><rect width="11.08" height="13.23" x="-5.54" y="-6.62" fill="none" rx="0" ry="0" transform="translate(258.88 198.96)"></rect><path d="m264.95 204.89 2.06-9.68h1.29l-.23 1.86h.02q.34-.46.81-.93.47-.47 1.09-.79.63-.32 1.43-.32.78 0 1.33.29.55.28.85.82.3.54.3 1.31 0 .4-.06.81-.06.42-.13.74l-1.29 5.89h-1.55l1.3-6.08q.08-.4.13-.68t.05-.52q0-.62-.34-.94-.33-.31-.98-.31-.64 0-1.36.44-.71.44-1.31 1.38-.61.95-.95 2.47l-.9 4.24Z"></path><rect width="8.95" height="9.86" x="-4.47" y="-4.93" fill="none" rx="0" ry="0" transform="translate(269.93 200.46)"></rect><path d="M279.24 205.07q-1.08 0-1.87-.44-.78-.43-1.2-1.25-.41-.81-.41-1.94 0-1.17.33-2.3.34-1.13.98-2.05.63-.92 1.52-1.46.89-.55 2-.55 1.33 0 2.01.6.69.59.69 1.63 0 .73-.34 1.34-.34.62-1.04 1.07-.7.45-1.76.7-1.07.25-2.53.25h-.34q-.01.16-.03.35-.01.2-.01.36 0 1.16.56 1.82.57.65 1.69.65.7 0 1.31-.19.62-.2 1.3-.53v1.26q-.65.3-1.31.49t-1.55.19m-1.74-5.59h.21q1.12 0 2.06-.2t1.51-.65q.58-.45.58-1.21 0-.49-.34-.81-.33-.31-1.02-.31-.6 0-1.19.37t-1.07 1.08q-.48.72-.74 1.73"></path><rect width="7.53" height="9.99" x="-3.77" y="-5" fill="none" rx="0" ry="0" transform="translate(280.02 200.57)"></rect><path d="M291.87 205.07q-.96 0-1.68-.14t-1.34-.43v-1.47q.56.28 1.3.51.75.23 1.73.23.61 0 1.16-.14.56-.14.99-.44.44-.29.69-.76.25-.47.25-1.11 0-.52-.23-.92-.22-.4-.7-.77-.49-.37-1.27-.8-.67-.4-1.2-.83-.53-.44-.84-1.02-.31-.59-.31-1.42 0-.9.34-1.59.33-.69.92-1.16.58-.47 1.34-.71.76-.24 1.61-.24 1.02 0 1.76.2.75.2 1.44.54l-.57 1.27q-.49-.26-1.18-.48-.69-.21-1.45-.21-.55 0-1.03.14-.48.15-.84.44-.36.29-.56.71-.2.43-.2.99 0 .57.21.95.22.38.64.69.41.3 1.03.66.78.46 1.38.91.6.46.93 1.05.33.59.33 1.49 0 .97-.33 1.69-.34.73-.97 1.2-.62.48-1.47.73-.86.24-1.88.24"></path><rect width="8.98" height="13.21" x="-4.49" y="-6.61" fill="none" rx="0" ry="0" transform="translate(293.84 198.97)"></rect><path d="M302.02 205.03q-1.11 0-1.91-.45-.8-.45-1.23-1.28-.42-.83-.42-1.97 0-.91.2-1.8.2-.9.6-1.69.39-.8.98-1.41.58-.61 1.35-.96.76-.34 1.7-.34 1.13 0 1.92.45.8.45 1.22 1.29.43.83.43 1.97 0 .9-.2 1.79t-.59 1.68q-.39.8-.97 1.41-.59.61-1.36.96-.76.35-1.72.35m.09-1.21q.54 0 1.03-.23t.9-.66q.4-.44.7-1.07.29-.63.45-1.42.17-.8.17-1.76 0-.57-.2-1.11-.21-.54-.66-.88-.44-.35-1.19-.35-.62 0-1.14.25-.52.26-.93.72-.42.47-.7 1.1-.29.64-.44 1.39-.16.76-.16 1.59 0 1.15.57 1.79.56.64 1.6.64"></path><rect width="8.4" height="9.9" x="-4.2" y="-4.95" fill="none" rx="0" ry="0" transform="translate(303.16 200.58)"></rect><path d="m308.2 204.89 2.92-13.67h1.46l-2.91 13.67Z"></path><rect width="4.38" height="13.67" x="-2.19" y="-6.83" fill="none" rx="0" ry="0" transform="translate(310.89 198.56)"></rect><path d="M315.66 205.07q-.73 0-1.28-.28-.54-.27-.84-.8-.29-.53-.29-1.3 0-.39.06-.76.05-.36.12-.76l1.28-5.91h1.48l-1.31 6.08q-.07.38-.11.67-.04.3-.04.53 0 .62.32.97.32.34 1.02.34.66 0 1.39-.44.72-.45 1.34-1.41.62-.97.94-2.51l.9-4.23h1.44l-2.04 9.63h-1.2l.24-1.86H319q-.34.45-.81.93-.48.47-1.1.79-.62.32-1.43.32"></path><rect width="8.83" height="9.81" x="-4.42" y="-4.91" fill="none" rx="0" ry="0" transform="translate(318.17 200.66)"></rect><path d="M325.88 205.07q-.96 0-1.6-.46-.63-.47-.63-1.59 0-.27.03-.59.04-.32.12-.67l1.13-5.39h-1.48l.14-.67 1.6-.62 1.05-2.04h.87l-.48 2.22h2.48l-.23 1.11h-2.47l-1.15 5.41q-.06.25-.11.53-.04.28-.04.53 0 .44.22.74.23.29.77.29.33 0 .64-.06.3-.06.64-.18v1.13q-.22.1-.66.21-.44.1-.84.1"></path><rect width="5.66" height="12.03" x="-2.83" y="-6.01" fill="none" rx="0" ry="0" transform="translate(326.78 199.56)"></rect><path d="m329.07 204.89 2.05-9.63h1.47l-2.05 9.63Zm3.28-11.32q-.35 0-.59-.21-.23-.2-.23-.58 0-.29.12-.55.12-.25.34-.4.23-.16.55-.16.39 0 .58.2.2.21.2.57 0 .52-.3.82-.3.31-.67.31"></path><rect width="4.25" height="13.22" x="-2.13" y="-6.61" fill="none" rx="0" ry="0" transform="translate(331.7 198.78)"></rect><path d="M337.54 205.03q-1.1 0-1.9-.45-.8-.45-1.23-1.28-.43-.83-.43-1.97 0-.91.21-1.8.2-.9.59-1.69.4-.8.98-1.41.59-.61 1.35-.96.77-.34 1.71-.34 1.12 0 1.92.45.79.45 1.22 1.29.43.83.43 1.97 0 .9-.2 1.79t-.59 1.68q-.39.8-.98 1.41-.58.61-1.35.96-.77.35-1.73.35m.09-1.21q.55 0 1.04-.23t.89-.66q.41-.44.7-1.07.3-.63.46-1.42.16-.8.16-1.76 0-.57-.2-1.11-.2-.54-.65-.88-.45-.35-1.2-.35-.61 0-1.13.25-.53.26-.94.72-.41.47-.7 1.1-.28.64-.44 1.39-.15.76-.15 1.59 0 1.15.56 1.79.56.64 1.6.64"></path><rect width="8.41" height="9.9" x="-4.21" y="-4.95" fill="none" rx="0" ry="0" transform="translate(338.69 200.58)"></rect><path d="m343.69 204.89 2.06-9.68h1.29l-.22 1.86h.01q.34-.46.81-.93.47-.47 1.1-.79.62-.32 1.42-.32.78 0 1.33.29.55.28.85.82.3.54.3 1.31 0 .4-.06.81-.06.42-.13.74l-1.28 5.89h-1.56l1.3-6.08q.08-.4.13-.68t.05-.52q0-.62-.34-.94-.33-.31-.98-.31-.64 0-1.36.44-.71.44-1.31 1.38-.61.95-.94 2.47l-.91 4.24Z"></path><rect width="8.95" height="9.86" x="-4.47" y="-4.93" fill="none" rx="0" ry="0" transform="translate(348.67 200.46)"></rect><path d="M361.77 205.07q-.79 0-1.38-.38-.58-.38-.91-1.12-.32-.74-.32-1.8t.22-2.05q.22-.98.64-1.82.41-.85.99-1.48.59-.63 1.32-.99.73-.35 1.57-.35.65 0 1.13.25.48.24.8.64.32.4.51.85h.08l.57-1.56h1.11l-2.04 9.63h-1.17l.27-1.86h-.07q-.4.53-.91.99-.51.47-1.11.76-.61.29-1.3.29m.47-1.22q.68 0 1.34-.49.66-.5 1.2-1.35.53-.85.81-1.91.14-.52.19-.95.05-.44.05-.82 0-.9-.48-1.46-.48-.56-1.31-.56-.59 0-1.11.3-.51.29-.93.81-.42.53-.72 1.22t-.46 1.5q-.16.8-.16 1.66 0 1.01.41 1.53t1.17.52"></path><rect width="8.94" height="9.99" x="-4.47" y="-5" fill="none" rx="0" ry="0" transform="translate(364.13 200.57)"></rect><path d="M371.71 205.07q-.95 0-1.59-.46-.64-.47-.64-1.59 0-.27.04-.59.03-.32.11-.67l1.14-5.39h-1.49l.14-.67 1.6-.62 1.06-2.04h.87l-.49 2.22h2.48l-.23 1.11h-2.47l-1.14 5.41q-.06.25-.11.53t-.05.53q0 .44.23.74.23.29.76.29.34 0 .64-.06t.65-.18v1.13q-.22.1-.67.21-.44.1-.84.1"></path><rect width="5.66" height="12.03" x="-2.83" y="-6.01" fill="none" rx="0" ry="0" transform="translate(372.61 199.56)"></rect><path d="M382.55 205.07q-.78 0-1.37-.38-.59-.38-.91-1.12-.33-.74-.33-1.8t.23-2.05q.22-.98.63-1.82.42-.85 1-1.48.58-.63 1.31-.99.73-.35 1.58-.35.65 0 1.13.25.48.24.8.64.32.4.5.85h.09l.56-1.56h1.12l-2.04 9.63h-1.17l.26-1.86h-.07q-.39.53-.9.99-.51.47-1.12.76-.6.29-1.3.29m.48-1.22q.67 0 1.34-.49.66-.5 1.19-1.35.53-.85.81-1.91.15-.52.19-.95.05-.44.05-.82 0-.9-.48-1.46-.48-.56-1.3-.56-.59 0-1.11.3-.52.29-.94.81-.41.53-.71 1.22t-.46 1.5q-.17.8-.17 1.66 0 1.01.42 1.53.41.52 1.17.52"></path><rect width="8.95" height="9.99" x="-4.47" y="-5" fill="none" rx="0" ry="0" transform="translate(384.92 200.57)"></rect><path d="m396.69 204.89 2.45-11.53h-3.59l.28-1.32h8.67l-.27 1.32h-3.58l-2.45 11.53Z"></path><rect width="8.95" height="12.85" x="-4.47" y="-6.42" fill="none" rx="0" ry="0" transform="translate(400.52 198.97)"></rect><path d="m403.42 204.89 2.04-9.63h1.47l-2.05 9.63Zm3.28-11.32q-.36 0-.59-.21-.23-.2-.23-.58 0-.29.12-.55.12-.25.34-.4.22-.16.55-.16.39 0 .58.2.19.21.19.57 0 .52-.3.82-.3.31-.66.31"></path><rect width="4.24" height="13.22" x="-2.12" y="-6.61" fill="none" rx="0" ry="0" transform="translate(406.04 198.78)"></rect><path d="m407.96 204.89 2.05-9.63h1.19l-.22 1.86h.08q.32-.46.77-.93.45-.47 1.04-.79.59-.32 1.35-.32 1.02 0 1.55.59.52.59.61 1.61h.06q.35-.54.85-1.04.49-.51 1.12-.83.62-.33 1.38-.33 1.12 0 1.72.61.61.61.61 1.76 0 .41-.05.78-.05.37-.14.75l-1.25 5.91h-1.48l1.3-6.06q.08-.4.12-.69.04-.29.04-.55 0-.59-.32-.93-.31-.35-.97-.35-.47 0-.97.26-.5.25-.97.77-.47.51-.85 1.29-.38.79-.6 1.84l-.94 4.42h-1.46l1.28-6.04q.08-.4.12-.7.04-.29.04-.5 0-.63-.29-.98-.29-.36-.95-.36-.47 0-.97.25-.51.25-.98.77-.48.53-.87 1.35-.4.81-.63 1.97l-.9 4.24Z"></path><rect width="14.16" height="9.81" x="-7.08" y="-4.91" fill="none" rx="0" ry="0" transform="translate(415.54 200.49)"></rect><path d="M427.51 205.07q-1.08 0-1.87-.44-.78-.43-1.2-1.25-.41-.81-.41-1.94 0-1.17.34-2.3.33-1.13.97-2.05.63-.92 1.52-1.46.89-.55 2-.55 1.33 0 2.01.6.69.59.69 1.63 0 .73-.34 1.34-.34.62-1.04 1.07-.69.45-1.76.7-1.07.25-2.53.25h-.33q-.02.16-.03.35-.02.2-.02.36 0 1.16.57 1.82.56.65 1.68.65.7 0 1.32-.19.62-.2 1.29-.53v1.26q-.65.3-1.31.49t-1.55.19m-1.74-5.59h.21q1.12 0 2.06-.2t1.52-.65q.57-.45.57-1.21 0-.49-.34-.81-.33-.31-1.02-.31-.6 0-1.19.37t-1.07 1.08q-.48.72-.74 1.73"></path><rect width="7.53" height="9.99" x="-3.77" y="-5" fill="none" rx="0" ry="0" transform="translate(428.3 200.57)"></rect><path d="M433.36 205.14q-.41 0-.64-.24-.23-.23-.23-.65 0-.55.31-.98.32-.43.98-.43.37 0 .6.23.23.23.23.67 0 .52-.31.96-.31.44-.94.44"></path><rect width="2.12" height="2.3" x="-1.06" y="-1.15" fill="none" rx="0" ry="0" transform="translate(434.05 204.49)"></rect><path d="M439.87 205.07q-.95 0-1.59-.46-.64-.47-.64-1.59 0-.27.04-.59.03-.32.11-.67l1.13-5.39h-1.48l.14-.67 1.6-.62 1.05-2.04h.87l-.48 2.22h2.48l-.23 1.11h-2.47l-1.14 5.41q-.06.25-.11.53t-.05.53q0 .44.23.74.23.29.76.29.34 0 .64-.06t.65-.18v1.13q-.22.1-.67.21-.44.1-.84.1"></path><rect width="5.66" height="12.03" x="-2.83" y="-6.01" fill="none" rx="0" ry="0" transform="translate(440.77 199.56)"></rect><path d="M446.99 205.03q-1.1 0-1.9-.45-.8-.45-1.23-1.28-.43-.83-.43-1.97 0-.91.21-1.8.2-.9.59-1.69.4-.8.98-1.41.59-.61 1.35-.96.77-.34 1.71-.34 1.12 0 1.92.45.79.45 1.22 1.29.43.83.43 1.97 0 .9-.2 1.79t-.59 1.68q-.39.8-.98 1.41-.58.61-1.35.96-.77.35-1.73.35m.09-1.21q.55 0 1.04-.23t.89-.66q.41-.44.7-1.07.3-.63.46-1.42.16-.8.16-1.76 0-.57-.2-1.11-.2-.54-.65-.88-.45-.35-1.2-.35-.61 0-1.13.25-.53.26-.94.72-.41.47-.7 1.1-.28.64-.44 1.39-.15.76-.15 1.59 0 1.15.56 1.79.56.64 1.6.64"></path><rect width="8.41" height="9.9" x="-4.21" y="-4.95" fill="none" rx="0" ry="0" transform="translate(448.13 200.58)"></rect><path d="M461.73 205.07q-1.08 0-1.86-.44-.78-.43-1.2-1.25-.42-.81-.42-1.94 0-1.17.34-2.3t.97-2.05q.63-.92 1.53-1.46.89-.55 2-.55 1.32 0 2.01.6.68.59.68 1.63 0 .73-.33 1.34-.34.62-1.04 1.07-.7.45-1.77.7-1.07.25-2.52.25h-.34q-.02.16-.03.35-.01.2-.01.36 0 1.16.56 1.82.56.65 1.69.65.69 0 1.31-.19.62-.2 1.3-.53v1.26q-.65.3-1.31.49t-1.56.19m-1.74-5.59h.21q1.13 0 2.07-.2t1.51-.65q.57-.45.57-1.21 0-.49-.33-.81-.34-.31-1.02-.31-.61 0-1.2.37t-1.07 1.08q-.47.72-.74 1.73"></path><rect width="7.53" height="9.99" x="-3.77" y="-5" fill="none" rx="0" ry="0" transform="translate(462.51 200.57)"></rect><path d="M469.82 205.07q-.79 0-1.38-.37-.59-.37-.92-1.11-.32-.73-.32-1.82 0-1.04.21-2.02t.61-1.82q.4-.84.98-1.48t1.32-.99q.75-.36 1.63-.36.68 0 1.16.25.49.24.81.63.32.39.5.84h.09q.05-.4.11-.78.05-.39.12-.78.08-.4.18-.82l.67-3.22h1.45l-2.9 13.67h-1.2l.24-1.86h-.07q-.42.54-.91 1.01-.5.46-1.09.75-.59.28-1.29.28m.49-1.22q.41 0 .84-.2t.83-.57q.4-.38.76-.89.35-.51.62-1.12.26-.62.41-1.3.15-.69.15-1.42 0-.93-.45-1.48-.44-.56-1.43-.56-.6 0-1.12.31-.51.31-.93.84-.41.54-.69 1.24-.29.7-.44 1.49-.16.8-.16 1.61 0 1.01.41 1.53.4.52 1.2.52"></path><rect width="9.84" height="13.85" x="-4.92" y="-6.92" fill="none" rx="0" ry="0" transform="translate(472.62 198.65)"></rect><path d="m477.24 204.89 2.04-9.63h1.47l-2.05 9.63Zm3.27-11.32q-.35 0-.58-.21-.23-.2-.23-.58 0-.29.12-.55.11-.25.34-.4.22-.16.55-.16.38 0 .58.2.19.21.19.57 0 .52-.3.82-.3.31-.67.31"></path><rect width="4.24" height="13.22" x="-2.12" y="-6.61" fill="none" rx="0" ry="0" transform="translate(479.86 198.78)"></rect><path d="M484.52 205.07q-.96 0-1.59-.46-.64-.47-.64-1.59 0-.27.04-.59.03-.32.11-.67l1.13-5.39h-1.48l.14-.67 1.6-.62 1.05-2.04h.87l-.48 2.22h2.48l-.23 1.11h-2.47l-1.14 5.41q-.06.25-.11.53t-.05.53q0 .44.23.74.23.29.76.29.34 0 .64-.06t.65-.18v1.13q-.22.1-.67.21-.44.1-.84.1"></path><rect width="5.66" height="12.03" x="-2.83" y="-6.01" fill="none" rx="0" ry="0" transform="translate(485.42 199.56)"></rect><path fill="#ffdc00" d="M15.87 180.34q-.57 0-2.01-.87l-.58-8.64q-.29-1.73-.14-2.88.14-1.15.14-1.44l-.29-1.73q-.29-.57-.43-.86-.14-.29-.14-.58v-1.44q0-5.18 2.01-6.04 0-.29-1.44-1.16.29-1.15 0-3.16-.29-.87-.86-2.6l.57-1.72q.29-.87.29-1.44 0-2.88-.29-3.17-.28-1.15-.28-2.31v-2.59l.28-4.61q-.57-3.16-1.15-6.48-.57-3.31-1.15-6.76 0-2.31.86-4.32l1.73 1.15q.58-.58.58-1.73 0-2.3-1.73-2.3-.58 0-.86.28-.29 0-.87-.86v-3.17q0-2.3.15-4.17.14-1.88.43-3.03.57-2.3 0-3.17l-.87-1.44v-1.72q0-.87.29-1.73 0-.29.58-1.44l.57-1.44-1.44-1.44-.28-2.31v-3.16q-1.16-1.73-1.44-3.17.28 0 1.15-2.31.29-.86.29-1.72v-1.44q-.29-3.46-.29-3.75l1.44-1.73q-2.31-2.3-2.31-5.47v-2.88l-.28-.29q.86 0 0-2.59l-.29-.86q2.59-2.59 3.17-5.76h-.87q-2.01 0-2.01-1.15 0-.87.57-1.44l-.57-3.46q.28-.58.72-1.58.43-1.01.43-1.3l-2.31-6.34q0-2.59 2.31-4.32 0-.57-.87-.86l-1.72-.58v-1.15q.57-1.15 1-2.59.44-1.44.72-2.88l-2.01-2.59L5.5 6.67q1.73-.86 4.32-1.73.29 0 .58.15.29.14.86.43.87.86 1.16.86l4.32-2.3q0 .29.57.86v4.04l-.29.57 2.88-.29.58-2.59q.86.29 1.3.43l.43.15q.57 0 1.15-.58 0-1.73.29-2.01.29.28 1.44.28l1.73-.28q.86-.29 1.72-.29.87 0 1.16.29.86.57 1.15.28h1.44q.86 0 1.73-.28.28-.29.57-.58.29-.29.87-.58 1.72 0 1.72 1.73 0 1.15-.57 1.73l-1.44.86q.57.58 1.15 1.59.58 1.01 1.15 1.87-.57.58-1.44 5.47l.58 4.61q-.29.29-.87 1.73-.86 1.15-.86 1.73l.58 2.01q.86.87 1.15 1.44l1.73 7.2q0 .87-1.16 1.73.29.86.44 1.73.14.86.14 1.73.29 4.89.43 8.2.15 3.32-.14 4.76l-.29 1.44q-.29.57-.43.86-.15.29-.15.58 0 .28.87.86.86.86.86 2.59l-.29 2.59-.57 2.6.86 2.3v4.03q0 4.32.29 5.19l.86 3.74q0 1.44-.14 3.17t-.43 3.17l-1.44 2.01 3.17 2.88v2.88l-2.31 1.15 1.15 1.16q-.28.86-.28 3.45.86.58 1.44 2.31l-1.44 2.3q-1.73 2.02-1.73 2.59l1.44 3.46q0 .29 1.44.86l-.87 4.03q.58.29 1.73 2.02-1.73.86-3.17.86-.28-.28-2.3-.28-1.44 0-2.59 2.88 0 2.59 1.15 2.59 1.15-.29 2.02-1.73l1.72-2.3q.58.28 2.6.86l-.29 1.73q.86.86 1.15 1.73-.29 2.01-.29 5.18v8.06l-.86 2.02q1.15.86 1.15 2.59 0 3.17-1.73 4.03l1.44.87q.29.29.87 1.01.57.72 1.15 1.58.57.29-1.15 2.02l.28 1.72h1.73q.58-1.72 1.15-4.6 1.44.28 2.6-.29h1.15q.86 2.3 1.73 2.01l2.01-1.44q1.44-1.44 2.02-1.44 1.73 0 2.01 1.73l.58 2.59h.58q.28-.28 1.15-3.16 0-.29.86-.29.58-.58 1.15 1.15l1.16 1.73q2.01-2.02 1.44-3.17l2.59-.58q1.15.29 2.45.58 1.29.29 2.73.58l2.31-1.16 1.15.29.86.29q2.31-.58 2.59-1.44.58-.86 2.02-.86 1.44-.58 2.3.57.29.58.58 1.73t.86 2.59l-1.15 2.31 1.44 3.45-.29 2.02q-.28 1.15-.28 1.73v1.15l.28 2.59q0 .58-.86 2.3l-.58 1.73.87 1.44q.86 1.15.86 1.44-.29 1.15-.29 2.45v3.02l-4.03.29q-.29.29-1.01.58t-1.58.57q-2.59-1.15-5.47-1.44-.29 0-1.44.58-.87.86-1.15.86l-3.46-.86-6.05.86q-.29 0-.43-.14t-.43-.14l-1.15-.29-2.6 1.44-1.72-.87q-.87-.57-1.44-.57h-.87l-2.59.86q-1.15.29-1.73.72-.57.43-.86.43l-3.75-.28q-2.01-.29-2.88-.29h-1.15l-.86.29q-.29 0-.43.14-.15.14-.44.14l-1.72-.57h-.87q-.57 0-1.15.29l-2.02.57q-.57-.57-1.44-.86l-2.3.86q-.58 0-.86-.29-.29-.28-1.16-.28l-5.76 1.44q-.86 0-2.3-1.44-.58 1.15-1.73 1.44m14.4-168.2q.58 0 1.15-.57v-1.15q-.28-.29-1.15-.29ZM9.25 13.87q1.44-1.44 1.44-2.01l-.58-1.16H8.67q0 .58.15 1.3.14.72.43 1.87m28.22-2.3v-.29q-.29.29 0 .29m-26.78 8.35v-1.15h-.58l.29 1.15Zm10.94 4.32v-.86q0-.58-.14-1.3-.15-.72-.43-1.58-1.16 1.15-1.16 2.3 0 .86.87 1.44Zm4.32 14.69q4.61-.29 4.61-5.19 0-3.16-2.02-2.3-.28 1.15-1.72 2.88l-2.31.86-.29 1.73v.58q0 1.44 1.73 1.44m-10.37 9.79q0-.58-.57-1.15-.29-.58-1.15.29 0 .86 1.72.86m-.57 23.62q.86.28 1.73-1.16-.29-.28-.87-.28-.86 0-.86 1.44m-6.05-.58.29-.29Zm24.19 5.47q1.44-.86 1.73-1.73-1.15-.86-1.73-.86-.57 0-2.01 2.3ZM8.1 80.4v.29zm9.21 6.05q1.44-1.44 1.73-2.31-1.44.29-3.17 2.02h.87q.28 0 .28.14 0 .15.29.15m9.79 69.98q.29-.29.58-.29t.58-.28q0-.29-.58-.87Zm22.47 4.61 1.44-.29v-.29h-1.44Zm11.81 2.59q.57-.57-.29-1.73-2.31 1.44.29 1.73m-24.77 7.49q1.15-1.73 2.3-2.88v-3.17q-1.73-1.73-3.45-1.15l-2.6 1.15q-.86.29-.86 3.17l3.17-.29h.29q.57 0 .57 1.44 0 1.73.29 1.73Zm-20.16-4.9q.86.29 1.44-.57.57-.58-.58-1.15-.86.28-.86 1.72m61.34 5.19q.87 0 1.73-1.44-.86-.58-1.44 0-.29.29-.29 1.44"></path><rect width="79.49" height="176.84" x="-39.74" y="-88.42" fill="none" rx="0" ry="0" transform="translate(45.74 92.42)"></rect><path fill="#ffdc00" d="M97.66 180.34q-.57 0-2.01-.87l-.58-8.64q-.29-1.73-.14-2.88.14-1.15.14-1.44l-.29-1.73q-.28-.57-.43-.86-.14-.29-.14-.58v-1.44q0-5.18 2.01-6.04 0-.29-1.44-1.16.29-1.15 0-3.16-.28-.87-.86-2.6l.58-1.72q.28-.87.28-1.44 0-2.88-.28-3.17-.29-1.15-.29-2.31v-2.59l.29-4.61q-.58-3.16-1.16-6.48-.57-3.31-1.15-6.76 0-2.31.87-4.32l1.72 1.15q.58-.58.58-1.73 0-2.3-1.73-2.3-.57 0-.86.28-.29 0-.87-.86v-3.17q0-2.3.15-4.17.14-1.88.43-3.03.58-2.3 0-3.17l-.86-1.44v-1.72q0-.87.28-1.73 0-.29.58-1.44l.58-1.44-1.44-1.44-.29-2.31v-3.16q-1.15-1.73-1.44-3.17.29 0 1.15-2.31.29-.86.29-1.72v-1.44q-.29-3.46-.29-3.75l1.44-1.73q-2.3-2.3-2.3-5.47v-2.88l-.29-.29q.86 0 0-2.59l-.29-.86q2.59-2.59 3.17-5.76h-.87q-2.01 0-2.01-1.15 0-.87.57-1.44l-.57-3.46q.29-.58.72-1.58.43-1.01.43-1.3l-2.3-6.34q0-2.59 2.3-4.32 0-.57-.86-.86l-1.73-.58v-1.15q.57-1.15 1.01-2.59.43-1.44.72-2.88l-2.02-2.59-.86-14.98q1.72-.86 4.32-1.73.28 0 .57.15.29.14.87.43.86.86 1.15.86l4.32-2.3q0 .29.57.86v4.04l-.28.57 2.88-.29.57-2.59q.87.29 1.3.43l.43.15q.58 0 1.15-.58 0-1.73.29-2.01.29.28 1.44.28l1.73-.28q.86-.29 1.73-.29.86 0 1.15.29.86.57 1.15.28h1.44q.86 0 1.73-.28.29-.29.57-.58.29-.29.87-.58 1.73 0 1.73 1.73 0 1.15-.58 1.73l-1.44.86q.58.58 1.15 1.59.58 1.01 1.15 1.87-.57.58-1.44 5.47l.58 4.61q-.29.29-.86 1.73-.87 1.15-.87 1.73l.58 2.01q.86.87 1.15 1.44l1.73 7.2q0 .87-1.15 1.73.28.86.43 1.73.14.86.14 1.73.29 4.89.43 8.2.15 3.32-.14 4.76l-.29 1.44q-.29.57-.43.86-.14.29-.14.58 0 .28.86.86.86.86.86 2.59l-.28 2.59-.58 2.6.86 2.3v4.03q0 4.32.29 5.19l.87 3.74q0 1.44-.15 3.17-.14 1.73-.43 3.17l-1.44 2.01 3.17 2.88v2.88l-2.31 1.15 1.16 1.16q-.29.86-.29 3.45.86.58 1.44 2.31l-1.44 2.3q-1.73 2.02-1.73 2.59l1.44 3.46q0 .29 1.44.86l-.86 4.03q.57.29 1.72 2.02-1.72.86-3.16.86-.29-.28-2.31-.28-1.44 0-2.59 2.88 0 2.59 1.15 2.59 1.15-.29 2.02-1.73l1.73-2.3q.57.28 2.59.86l-.29 1.73q.86.86 1.15 1.73-.29 2.01-.29 5.18v8.06l-.86 2.02q1.15.86 1.15 2.59 0 3.17-1.73 4.03l1.44.87q.29.29.87 1.01.57.72 1.15 1.58.58.29-1.15 2.02l.29 1.72h1.72q.58-1.72 1.16-4.6 1.44.28 2.59-.29h1.15q.86 2.3 1.73 2.01l2.01-1.44q1.44-1.44 2.02-1.44 1.73 0 2.02 1.73l.57 2.59h.58q.29-.28 1.15-3.16 0-.29.86-.29.58-.58 1.16 1.15l1.15 1.73q2.01-2.02 1.44-3.17l2.59-.58q1.15.29 2.45.58 1.29.29 2.73.58l2.31-1.16 1.15.29.86.29q2.31-.58 2.6-1.44.57-.86 2.01-.86 1.44-.58 2.31.57.28.58.57 1.73.29 1.15.87 2.59l-1.16 2.31 1.44 3.45-.28 2.02q-.29 1.15-.29 1.73v1.15l.29 2.59q0 .58-.87 2.3l-.57 1.73.86 1.44q.86 1.15.86 1.44-.28 1.15-.28 2.45v3.02l-4.04.29q-.28.29-1 .58t-1.59.57q-2.59-1.15-5.47-1.44-.29 0-1.44.58-.86.86-1.15.86l-3.46-.86-6.05.86q-.28 0-.43-.14-.14-.14-.43-.14l-1.15-.29-2.59 1.44-1.73-.87q-.87-.57-1.44-.57h-.87l-2.59.86q-1.15.29-1.73.72-.57.43-.86.43l-3.74-.28q-2.02-.29-2.88-.29h-1.16l-.86.29q-.29 0-.43.14-.15.14-.43.14l-1.73-.57h-.87q-.57 0-1.15.29l-2.01.57q-.58-.57-1.44-.86l-2.31.86q-.57 0-.86-.29-.29-.28-1.15-.28l-5.76 1.44q-.87 0-2.31-1.44-.57 1.15-1.73 1.44m14.4-168.2q.58 0 1.16-.57v-1.15q-.29-.29-1.16-.29Zm-21.02 1.73q1.44-1.44 1.44-2.01l-.58-1.16h-1.44q0 .58.15 1.3.14.72.43 1.87m28.22-2.3v-.29q-.28.29 0 .29m-26.78 8.35v-1.15h-.58l.29 1.15Zm10.94 4.32v-.86q0-.58-.14-1.3-.14-.72-.43-1.58-1.15 1.15-1.15 2.3 0 .86.86 1.44Zm4.32 14.69q4.61-.29 4.61-5.19 0-3.16-2.01-2.3-.29 1.15-1.73 2.88l-2.31.86-.28 1.73v.58q0 1.44 1.72 1.44m-10.36 9.79q0-.58-.58-1.15-.29-.58-1.15.29 0 .86 1.73.86m-.58 23.62q.86.28 1.73-1.16-.29-.28-.87-.28-.86 0-.86 1.44m-6.05-.58.29-.29Zm24.19 5.47q1.44-.86 1.73-1.73-1.15-.86-1.73-.86-.57 0-2.01 2.3ZM89.89 80.4v.29zm9.21 6.05q1.44-1.44 1.73-2.31-1.44.29-3.17 2.02h.87q.29 0 .29.14 0 .15.28.15m9.8 69.98q.28-.29.57-.29.29 0 .58-.28 0-.29-.58-.87Zm22.46 4.61 1.44-.29v-.29h-1.44Zm11.81 2.59q.57-.57-.29-1.73-2.3 1.44.29 1.73m-24.77 7.49q1.15-1.73 2.3-2.88v-3.17q-1.72-1.73-3.45-1.15l-2.59 1.15q-.87.29-.87 3.17l3.17-.29h.29q.57 0 .57 1.44 0 1.73.29 1.73Zm-20.16-4.9q.86.29 1.44-.57.58-.58-.58-1.15-.86.28-.86 1.72m61.34 5.19q.87 0 1.73-1.44-.86-.58-1.44 0-.29.29-.29 1.44"></path><rect width="79.48" height="176.84" x="-39.74" y="-88.42" fill="none" rx="0" ry="0" transform="translate(127.54 92.42)"></rect><path fill="#ffdc00" d="M246.56 185.23q-2.59-.57-3.74-2.3 0 .29-.87.86-.86.29-1.58.43-.72.15-1.3.15l-2.88-1.73-2.01-1.44q-6.34 2.02-7.49 2.02-.87 0-3.75-2.88l.58-1.73v-2.88q-.29-.87-.29-4.03l.29-4.32q-.29-.29-.29-1.44 0-.58.15-1.3.14-.72.43-1.58-.58-4.9-.87-7.92-.28-3.03-.28-3.89l1.44-2.88q-3.17-2.31-3.17-3.46 0-.86 2.3-2.59-.57 0-.86-1.15-.29-1.15-.87-1.15.29-.87.29-3.75l-.29-3.74 2.02-1.15q-.58-1.44-1.44-2.02v-2.02q-1.73-3.45-1.73-3.74 0-.29.87-1.44.86-.86.86-1.44l-.29-1.15q-.57-1.15-.57-1.44l.57-5.76q-.57-.58-.86-1.44v-2.88q0-.29-.29-.58-.58-.57-.29-.86 0-2.31 2.59-6.05-.28-.58-2.59-1.15-1.44 0-1.44-1.44v-.87h-.86l.29 1.44v.15q0 .14-.29.43-1.73 0-2.02 2.02 0 .57-.86 1.44l.29 1.44q-.29.28-.87 1.44.87 1.72 0 3.16-2.01 3.46-2.3 3.17l-.29-.29h-.58q-1.72-.57-1.72 4.32v4.9q.28.58.57 1.44.29.86.58 2.02l-.29 4.89h-1.15q-.58-1.73-1.15-2.01h-.87l-.57.28q2.3 4.04 2.3 4.9-.58 2.3-1.73 2.02-.57-.58-1.29-1.01-.72-.43-1.59-.72-.86 0-.86.29 0 .28 1.73 1.72.28 2.02 2.3 2.6l-.29 4.89-3.17-.29q.29 2.31.29 3.6v1.59l-.29.86q0 .29-.28.43-.29.15-.29.44l.57 2.59q.29 1.15.29 1.87v1.01q-.29.29-.72 1.01t-1.01 2.16l-1.15 3.45q-.86 2.02-2.88 3.17 0 1.73.87 3.17.86 1.44.57 3.17-.29.57-.86 1.87-.58 1.29-1.15 3.02-.29.29 0 3.46-.87 1.73-2.88 1.44l-2.02-.87q-1.15-.57-2.02-.57l-2.01.57-2.59.58q-.29-.29-1.01-.58-.72-.28-1.59-.28h-2.88q-.28 0-1-.29t-1.88-.58l-2.88-.57q-.28 0-1.44.57-1.15.87-1.44.58-.86 0-1.72-2.59-.87-.58-.87-1.44l.87-2.88v-.87q0-1.44-.87-2.3l1.15-.58h.29v.58q.58-.58.87-1.73h-1.16q-1.15 0-1.15-2.88v-3.46q0-3.45-.57-2.88 2.59-1.15 2.88-2.01 0-.87-3.17-3.17l.57-1.44-.57-1.15q-.29-2.02-1.15-3.17.57-4.9.86-8.21.29-3.31.29-4.46l-1.15-4.61q0-.58 1.15-1.73l1.15-1.15q-.29.29-1.44-2.88.58-.58 0-2.02-.29-.57-.86-1.29-.58-.72-1.16-1.87.29-.58.29-2.02l-.29-.86q0-.29-.28-.44-.29-.14-.29-.43l.29-6.05v-1.15q0-.86-.29-2.01l.57-1.73q2.88-1.73 2.88-3.46t-4.32-5.47q-.28-1.44-.28-3.17V85.3q0-2.02-.58-2.6.58-1.15.58-2.59-.87-1.44-1.73-3.74.29-.87.29-2.31v-3.45q-.29-2.02-.58-2.31.58-.86 1.01-2.01.43-1.15 1.01-2.59 2.59-1.44 3.16-3.17v-.87q0-1.72-.86-2.59-1.44 1.15-2.02 5.19h-.28q-.29 0-.44.14-.14.14-.43.14-.57 0-1.44-1.44 1.15-3.74 1.15-4.89 0-.58-.86-1.44l.29-4.03q-.87-1.44-1.73-4.61l.29-6.91q0-.58-.29-1.44l-.29-1.16-.57-9.5q0-1.15.86-3.17l.86-.86q.58-.58 1.73-1.15-.29-.58-2.59-.87l-.86-.57q-.29-3.17-1.73-8.64 1.15-1.16 2.3-.87 0-.29.58-.86-1.73-1.44-2.59-4.32l.28-4.03q.58.28 1.59.72 1.01.43 2.16 1 .29-.28.86-.28.58 0 1.44-.29l2.31 1.15q.57-.29 1.58-.58 1.01-.28 2.16-.57l2.88.86h.58q1.44 0 2.59-.86l1.15 1.15q.58.58 1.44 1.15.58 0 2.02-1.44l.86.29V6.1q-.29 1.15.86 1.44 1.16 0 1.44-.87.29-.57 0-1.58l-.28-1.01 1.44.29 2.01.86h2.02l.57 1.15-.86 10.66q-1.44.86-3.17 3.17l1.44 2.3q1.15 2.02 1.15 2.31-.28 1.72-2.3 1.72h-1.44q-.86 0-1.73-.28-.29.28-.29 1.44 1.44 1.44 2.31 1.72 1.15 0 2.3-1.15l1.44 2.02 1.15 1.73-.86 2.01q-.29 1.15 0 3.46 0 .57-.29.86-1.44 0-1.44 1.73t.58 2.88q-1.44 1.15-1.44 2.02 0 1.72 1.15.86h1.15l1.15 3.74q-.57 1.16-1.15 1.88-.57.72-1.15 1.29l-.58 6.34q2.6 1.44 2.31 3.17 0 .28-.58.86-.86.86-.86 1.44l.57 2.02q.29.86.58 1.44.29.57.29.86l1.15.86q0 .58-.14 1.44-.15.87-.15 2.31l-.57 8.06v.29q0 1.44.86 5.76l-.86 1.15q-.29.29-.29.87h.43q.14 0 .43.28 1.73 0 4.61-4.6-.29-.29.29-1.73.57-1.73 1.73-1.44 0-.58-.87-.87-.29-.57-.29-2.88l2.6-8.92q.28-.87.28-4.04l.87-.86v-2.88q.29-.29.29-1.15l1.15-1.44q0-1.15.14-2.74.15-1.58.43-3.6.58-3.17 2.31-3.17 1.73.58 2.59 1.16l.58-.29q0-1.15-.87-1.44-1.15 0-1.73-.58-.28-.57-.43-1.29-.14-.72-.43-1.88l2.02-1.44q.57-1.72.57-2.59l.58-2.3-.58-2.59q-.57-2.31-.29-2.6 0-1.15 1.16-2.3l-.58-2.59q0-.58 3.17-2.88-1.73-3.17-1.73-2.88l.58-3.17q1.72-1.44 1.72-3.74v-2.02l.58-.58q.29-.28.58-.86l.57-3.46q.29-2.88 2.88-2.88.29.29 2.02 1.16 1.73.86 2.01.86.87 0 2.02-1.73l.86.29.58.58q.29.28.86.57.29-.29 2.02-.29.86 2.02 1.73 2.02 1.73 0 2.01-.29.29-.29-.28-.29h.57l.29.29q.86.87 1.44-.86 1.44.57 2.02 1.44l.57 4.89q.29-.28 1.73-5.47.29-.29.86-.29.29 0 4.04 2.31l-.29.57q-.29.58-.87 1.44.29.58.29 3.17h-.57q.28.29.28 1.15l-.28.87v3.17l1.15 1.15v2.88l.57.57q.29.29.29 1.16-.57.57-.86 2.88-.87 2.59-1.15 2.88l1.15 2.59v1.01q0 .72-.29 2.16l.58.86q.28.58.28 1.15-.28.29-.57.58-.29.29-.87.86v3.46q.87 1.15 1.73 3.45l-1.15 6.92.86 1.15q.58 1.15.29 2.88.29 1.44.58 1.44l-2.02 3.74.43.43q.44.44 1.01 1.59l-.57 2.59q-.87-.86-1.73-1.15-1.15 11.52-.87 12.09 4.32 4.61 4.32 6.05l-2.01 3.17-1.73.58v.86q-.29.29.29.29.29-.29 1.15-.29l2.88 1.15q0 1.44-2.02 2.59.29.58 2.31 1.16 1.44 0 2.01-.58v-.58q0-1.15-.86-2.3 3.74-.86 4.03-2.88 0-1.15-.57-1.15l-1.73-.58 2.3-.86q2.02-1.44.58-4.32l.86-8.07q.58-.57 1.15-1.58.58-1.01 1.16-2.16l.28-5.47v-3.17l1.73-4.32q.58-.86 1.73-.58.29-1.72-.29-2.88l-.86-2.01q.86-.87 1.15-2.02v-3.45q0-2.31 1.15-4.9l1.44-2.02q-.57-.86-.86-2.88.57-3.74.86-4.89 1.15-1.15 2.31-3.17l-.29-2.59-.58-2.31q2.02-4.32 3.17-8.92v-.58q0-.86-.86-2.59l.57-.87q1.73-1.44 3.46-.86l1.73.58q1.15.57 1.44.57h.28q1.16 0 2.31-1.15.86.86 1.73 1.15h1.15l1.44-.29q.29 0 1.44.58.29 0 1.44-.58l1.15-.28q.86.86 2.88 1.72l5.18-.57q.29.29.72.29.44 0 .72.28h1.88q.72 0 1.58-.28l.86.28v1.44q0 .29-.57.87l-1.73 5.76q-.58 1.44-1.44 1.73.29.57.29 2.3l-.87 2.02q.87 2.01.29 3.45l-2.01 2.31q-.29.28 0 .57-.29 1.15-2.02 2.02.58.29.86 1.73l-2.01 4.32q.29.28 2.01.28-.28 1.16.29 2.02l-2.88 2.88q.29 2.3.58 2.59L284 52.46v1.3q0 .72-.29 1.87-.29.29-.72.58t-1.01.86l1.44 2.02h-2.01q-2.31.57-1.44.86-.29 0-.87-.86-1.72 1.15-2.01 2.3 0 .58.57.87.29-.29 4.61-.58.58 1.73.58 2.02-1.15 1.15-1.44 2.01-1.15 2.02-1.15 5.19l-1.73 2.59q.29.29.29 1.01t.28 1.87q-1.15.29-2.01 0l-1.44-.58q-.29 0-.87.58-1.72.29-2.3 2.3l2.02 4.03q2.3-2.3 3.45-4.03-1.15 6.34-.86 6.91l-4.9 12.1q-1.15.29-2.88 0-.29.29-.29 1.44l.87.58.86-.29h.58q.57 1.73.57 2.3-.28.29-1 2.02t-.72 2.01q0 .87.86 3.17v1.44q-.58.58-2.02 1.15-1.72 1.16-1.72 2.6 0 .86 1.72 2.3 0 .58-.86 2.02-.86 1.15-.86 3.74-.58 2.59-1.73 4.61-1.15.29-2.59 2.3v2.02q0 .86.28 2.01-1.72.29-1.72 1.16 0 .57.57 1.15.58 1.15.58 1.44-.58.57-1.15 2.01 0 1.16-.15 3.17-.14 2.02-.43 4.32-3.17 1.44-2.59 3.75l.29 2.01q0 .58.14 1.15.14.58.14.87 0 1.44-.28 2.01l-2.6 3.17q-2.01 3.17-2.01 4.61.86.58 1.15 2.02l-.86 7.48q-1.73 1.73-3.17 4.32l.57 2.02v.29q0 1.44-1.15 4.03-2.59 1.15-4.03 1.15M183.49 4.08h-.29zm-14.69 9.79q.29-.29 1.44-.86-.29-.29-1.44 0Zm3.46 2.31q1.15.57 1.72-.58-.57-.58-.86-.58-.86 0-.86 1.16m105.98 4.89q1.73-1.73 1.73-2.59v-.29q0-2.59-3.46-2.88-.86-.29-1.44.29l-.29.86q0 .87 1.73 2.31 1.73 1.73 1.73 2.3m-57.6 3.17q.29-.29 1.44-.86 0-.58-1.44 0Zm3.46 2.3q.86.29 1.72-.86-.28-.29-.86-.29-.86 0-.86 1.15m48.67.87q.29-.87-.29-1.44-.29-.58-1.15.29 0 .57 1.44 1.15m-54.43 8.93q.28-.29-.58-1.16-.29 0-.86.58l.86.29q.29 0 .43.14zm0 4.6q.28-.57-.29-1.15-.58-.57-1.15 0 0 .58 1.44 1.15m7.2.29v-1.15q-.29-.58-.87 0Zm-57.03 7.49q1.15-1.44 1.15-2.59-.28-.58-2.3-2.02l-2.59 3.17q.57.29 1.58.58 1.01.28 2.16.86m-5.47 19.87v-.29Zm51.26 18.15q.87.28 1.73-.87-.29-.29-.86-.29-.87 0-.87 1.16m-9.79 4.6q.58-.57.58-.86 0-.86-1.15-.86-.58.86.57 1.72m21.03 0q.86.29 1.72-.86-.28-.29-.86-.29-.86 0-.86 1.15m-42.34 10.08q.86.29 2.02-.86-.29-.29-1.16-.29-.86 0-.86 1.15m60.19 2.31q.29 0-.57-1.15-.29 0-.87.57Zm-69.69 2.3q.28-.29.28-.86 0-.87-1.15-.87-.29.87.87 1.73m20.73 0q.87.29 2.02-.86-.29-.29-1.15-.29-.87 0-.87 1.15m48.96 2.31q.29-.58-.29-1.16-.57-.57-1.44 0 .29.58 1.73 1.16m7.2.28v-1.15q-.29-.57-.86 0Zm-72.57 12.39q.28-.58 2.59-2.88l.57-1.73 2.88-2.88q-2.3-2.3-2.3-2.59 0-2.02-.58-2.59l-1.72-.29v2.3l.86 2.59q0 .87-2.02 1.16v1.44q.29 0 .29.57 0 .58-1.44 4.32Zm71.71 11.81q0-.87-.29-1.16-.29-.28-1.44.29 0 .87 1.73.87m-11.52 4.03q.57.29 1.73-.87-.58-.57-1.44-.28-.58.57-.29 1.15m-48.67 4.32h.14q.14 0 .43-.29l.58-.29q0-.29-.58-.86Zm59.32 17.85q2.02 0 2.02-2.59 0-2.01-1.73-2.88v-1.73q-.86-1.44.58-2.88l3.17-1.15-.29-.86h-2.02l-.86-.58q-.58-.29-1.73-.29l-.58.87-.57.57-1.15-.57q-.87-.58-1.16-.29-.28.58-.28 2.02 0 3.74 1.15 4.89l1.44.29.57 1.15q.29.29 0 .58-.28.86 0 2.01.58 1.44 1.44 1.44m-71.42-9.5q.86.29 1.44-.29.29-.29-.29-1.44-.57 0-1.15 1.73m12.67 19.01q0-.87-.29-1.15-.57-.58-1.44 0 0 .57 1.73 1.15m53.57.57q.29-.57-.29-1.15-.29-.29-1.44.29 0 .86 1.73.86m-11.52 4.04q.58.28 1.73-.87-.29-.29-.87-.29-.86 0-.86 1.16"></path><rect width="135.93" height="183.45" x="-67.97" y="-91.72" fill="none" rx="0" ry="0" transform="translate(227.47 94)"></rect><path fill="#ffdc00" d="M359.17 129.07q-1.15 0-5.47-1.44-2.02-.57-3.32-1.01-1.29-.43-2.44-.14-.58.86-2.6 1.44-.86.29-2.59 0l-2.01.29h-4.76q-1.29 0-2.73.29-.58 0-1.15-.15-.58-.14-1.16-.43-.28.29-1.15.29-1.15 0-2.01-.87-1.16-.86-1.44-.86-.29 0-1.44.58l-1.16-1.16q-1.15-.86-1.15.29l.58.58q0 .86-.29 1.15h-11.81l-3.45-.58q-.29 0-.87-.57-.57-.58-.86-.58.57 0-.87.58-1.15.86-3.16.86-.58 0-2.31-.57v-.87l.58-1.15q.29-.29.29-.86 0-.87-1.44-3.17l.28-.58q.29-.29.29-.57l.58-4.04q0-.57-.29-1.15l-.29-.86q0-.87.29-2.02l.29-1.73v-.14q0-.14-.29-.43l-.58-.87.15-.28q.14-.29.43-.87h3.46q.57.58 1.15.87.57.28 2.59.28h2.3q1.73-.57 2.31.87.57 1.44.86 1.44l2.02-.58q.57 0 1.58-.86 1.01-.87 2.16-.87 2.02-.28 3.46-.43 1.44-.14 2.59-.14.58 0 1.15.14.58.15 1.15.43.58.29 2.31-.28 0 .28.29.57h2.59l.43.29q.43.29.72.29.29-.29.58-1.44h3.88q1.01 0 2.16-.29l2.88-.29 1.16.58q.86.86 2.88.57l-.29 1.16.29.28h1.44q.57-.57.57-1.72 5.47 0 6.05.28h6.91v2.88q-1.73.87-1.73 1.73l.87 1.44.57 1.73.29 6.05v5.47q0 .86-1.15.86-.29.29-1.15.29m-6.34-12.96q0-.57-1.15-.57.58.57 1.15.57m-41.76 6.63q1.44 0 1.44-1.16l-.29-.86q2.02-.29 2.02-1.73l-1.15-1.15-1.15-.58q-.87-.28-1.44-.28-1.44 0-1.44 1.15l.57 2.01 1.44 1.16q-.57 0-1.15.57.58.87 1.15.87m-4.61-3.17q.87-.58.87-1.73 0-.29-1.44-.58-.58 1.16.57 2.31m24.77-.87q.58 0 .87-1.15-.58.58-.87 1.15m14.11 2.6.87-.87q-.29-.86-2.02-.29.29 1.16 1.15 1.16"></path><rect width="62.49" height="21.6" x="-31.25" y="-10.8" fill="none" rx="0" ry="0" transform="translate(330.73 118.77)"></rect><path fill="#ffdc00" d="M411.87 183.22q-.29 0-.57-.29 0-2.59-.87-4.61-.57 0-2.3 1.73-2.02 1.73-2.59 1.73l-7.49-2.02q-.29.29-1.44.29l-5.76-2.59q-.29 0-1.01-.15-.72-.14-1.58-.43l-3.46-2.02h-.29l-.86.29q-.87-1.15-3.17-2.59l-1.15-4.03q-1.44-.87-2.02-1.73l-.86-2.88q-.87-.58-1.73-1.3-.86-.72-2.02-1.87-.28-.57-.57-1.44-.29-.86-.87-2.01v-1.73q-.28-.58-.57-1.01-.29-.43-.87-1.01-1.15-2.01-.86-4.89l1.73-5.19-.58-1.15-.86-1.44q-.29-.86-.29-2.3.29-5.19.86-3.75l-.57-1.15q-.87-.86-.87-1.44.58-3.17 1.16-4.32.57-.58 1.72-2.3l-.57-2.02-.29-1.44 1.44-2.3-.86-1.16q.28-.28.28-1.72l-.57-4.32 1.44-2.6q.29-.86-.29-2.3 0-.29.29-.29t.29-.57l.28-3.17-.86-8.64q2.3-.58 2.3-1.73l-.86-2.88q1.44-.58 2.88-1.73t3.17-2.3q0-2.02-1.73-2.31-1.15 0-1.44 1.16l-.58 1.72q-2.88-1.44-2.3-3.74l.86-1.73v-1.73l1.73-1.72v.28q0-.28.29-1.44l-.29-2.3q-.29-.86-.29-1.44v-.86l1.16-3.46q.57-1.44.57-3.46v-4.03l.58-1.73v-2.59q0-1.44-.29-2.88.58-2.88 1.44-3.74 1.15-1.15 1.15-2.31l-.29-1.44q0-.57-.28-.72-.29-.14-.29-.43l.86-3.74q.29 0 .87-.58-1.16-2.88-.87-5.47.29-.58.58-1.15.29-.58.57-1.44l.29-2.59 2.88-2.31 1.44.29-2.01 1.44q.28.29.57 1.44h.87l.86-.86v-2.02q1.15-.58 2.3-2.02-.86-2.01-2.01-2.3l-.58.58-1.73-.29v-.87q0-1.72 4.32-5.18.29-.29.29-1.73l2.31-1.73q.28-.57 2.01-2.3l5.47-4.03q.29.29 2.02.86-.58-.29 2.88-2.01.58-.29 1.58-.44 1.01-.14 2.45.15l1.73.57q1.73 0 1.73-1.44t1.15-1.44q1.44.58 1.44.87v1.73l1.15-1.16q.87-1.44.87-2.01v-.58l3.16.58 1.73.29q2.31-.58 1.44-.87 1.15.58 2.45 1.01 1.3.43 2.45 1.01.29.29 1.73-.29l2.01-.58 4.03-.28 8.07 4.6 2.88-.57q1.44.29 1.44.57.29.58.29 2.02l1.72 2.59.29 2.02q.29.86 2.02 1.44.57 0 1.73-.87.57.87 1.15 1.73.57.87.86 1.73l2.31 1.73.86 3.17v.28q0 1.73 1.15 3.17l2.02.29q.57.58.57 1.44 0 1.15-.86 3.46l-.58 1.72q2.02 5.19 2.02 6.34.86.86.86 1.15l.29 1.44q0 .29.15.72.14.43.14.72-1.15.58-2.02 1.44-.86.87-2.01 2.02 2.01 2.01 2.01 4.32-.28.57-1.72 3.17l1.44 4.89q0 .29-.87 1.15-.86.87-.86 1.16.57 1.15.86 2.59l.58 2.88q-.58 3.17-2.88 2.88l-6.91-1.73h-5.48q-.57-.58-2.01 0l-2.02.58q-.57 0-2.01-.87l-2.02-.57h-6.05q-.57 0-2.59-1.44.58-.87.86-2.02.29-1.15 0-2.3l-.28-1.44q0-.58-.15-.72-.14-.15-.14-.44l4.32-16.12-.58-3.46q-.29.29-.86.29-1.44 0-1.15-2.88l.28-3.17q-1.72-3.46-2.88-3.74l-1.44.86q-.57.58-1.72.29l-5.19-2.02h-1.44q-.86 0-2.3.29-1.15.29-1.73 1.73l-.58 2.01q-1.15.29-2.59 2.31-.29.29-.57 1.01-.29.72-.87 1.58l.29 1.44q-.29 1.15-.43 2.45-.15 1.29-.72 3.02l-1.15 2.31q0 .28.28 1.72-.28 1.16-.86 5.19-.29.57.29 2.59l.57 2.88q-1.72.29-1.72 1.44 0 .29.28.86.29.58.58 1.44l.58 2.02q-.29.29-1.88 3.17-1.58 2.88-1.58 3.17l.86 2.01q.87 2.31.58 4.32-.29 1.15-3.74 2.31 1.15.57 2.01 1.44 0 .57-.29 2.44-.28 1.88-.86 5.04.58 1.73.58 4.04 0 .28-.29 1t-.87 1.88l-1.15 2.59q-.29 2.01 0 3.17.87 4.6 1.15 3.45-.86 2.02-1.72 6.63l.28 1.44-.86 6.04q-.29 0-.86.87l1.15 2.01q.86 1.73.86 2.02l-1.44 2.02-1.44 2.3q0 1.15.87 1.15h-.58q0 1.15-.14 2.31-.15 1.15-.44 2.59-.28 1.15-.28 2.73v3.32q-.29.86-.29 3.16l3.17 2.31v2.3q0 .29 1.72.87.29 2.88 2.31 3.45l2.01-.57 1.73-.58h7.49q.58-1.15 1.3-2.45.72-1.29 1.87-2.45l2.01-2.3q.87-.86 2.31-1.15v-.29q0-.58-.58-.58l-1.44-.28q0-.87 1.15-2.02-1.44-2.88-1.15-3.46.58-1.15 1.01-2.59.43-1.44.72-2.88l-.29-1.44v-3.6q0-1.29.29-3.02 0-.29-.58-1.44v-3.75q0-2.01 2.02-5.47 1.44 0 3.89.15 2.45.14 5.33.43l4.03 1.15q1.73.29 2.73.86 1.01.58 1.3.58l2.02-.58q1.44-.57 2.01 0 .29 0 2.74.44 2.45.43 2.73.72h3.75l.57.86-1.72 2.88v.86q0 .58-.29 1.73l1.44 2.02-3.17 4.03-2.88-1.73 1.44 1.73-.29 1.44h-1.44q1.44 1.44 2.02 1.73-2.31 1.15-2.88 3.74 0 1.44.57 1.44l1.73-.57q2.59 3.16 2.31 4.03 0 .57-1.73 2.01l.86 2.02q0 .58-.29.86l-.57.87v3.02q0 1.3-.29 2.16l-2.02 2.02v1.29q0 .72-.28 1.88-.29.57-1.3 2.16-1.01 1.58-2.45 3.88-.29.29-.72.58t-1.01.86v1.44q-.57.87-1.58 1.73-1.01.87-2.16 2.02l-1.44.57q-.86.58-.58 1.44-.28.29-1.44.29l-1.72 1.73-1.73.58q-.58.57-1.59 1.58-1 1.01-2.44 2.16-1.44.86-2.88 1.3-1.44.43-2.88.14l-.87-.29q-.29 0-1.44.29t-3.45.86Zm40.9-167.04q0-.87.29-1.16l.28.29v.87Zm-44.07 2.59q0-.29.58-.87l.58-.28q-.29-.29-1.44 0Zm3.75 1.44q.86.57 1.44-1.15-.58-.58-1.15 0-.58.57-.29 1.15m-8.64 4.03q.57.29 2.01-.58-1.15-2.01-3.16-.86.57 1.15 1.15 1.44m-11.52 16.99q.57-.29 1.15-.29-.58-.28-1.3-.57-.72-.29-1.58-.87 0-1.44.29-1.72-.29-.87-2.31-2.31-1.15-.29-1.15 1.44-.29 2.02-.86 2.59 3.17 1.73 4.32 1.73Zm7.49.29q.28-.29 1.29-.72t2.45-1.3q-.86-.28-1.44-.57-.58-.29-1.15-.58l-1.44-1.73q0 .29.14 1.01.15.72.15 1.3Zm54.43 5.76q.29-.29-.58-1.44-.29 0-.86.58l.86.28q.29 0 .43.29zm-9.22 4.03q.58-1.15.58-1.44 0-1.15-1.15-2.01l-.87 1.72q0 .87 1.44 1.73m-4.03 10.37.58-2.88-1.16.58Zm6.34-.29q.28-.57-.29-1.15-.29-.29-1.15 0 0 1.15 1.44 1.15m-57.32 56.16q.87 0 1.16-1.73-.87-.28-1.44.29-.29.29.28 1.44m-3.45 9.22 2.3-.29h2.31l.57-2.3-2.88-.29q-2.3 1.73-2.3 2.88m57.31 2.3q1.44-1.44.86-2.01l-2.59-.29q-.29 2.01 0 2.01Zm-.29 2.88.58-.29h.86v-.57q0-.29-.14-.29-.15 0-.15-.29-1.15.29-1.15 1.44m-15.84 19.3q.58-.29 1.15-1.73-.57-.29-1.15.29-.57.57 0 1.44m-18.14 10.37q.29-.58-.29-1.16-.58-.57-1.15 0 0 .58 1.44 1.16"></path><rect width="95.62" height="179.43" x="-47.81" y="-89.72" fill="none" rx="0" ry="0" transform="translate(416.69 94)"></rect><path fill="#ffdc00" d="M514.69 184.66q-2.31 0-3.75-.87-1.15-.86-3.16-.86l-.29.29h-.58q-.29.28-2.01-.58l-2.31-.86-.29.28q0 .29-.28.29.57 0-2.31-1.44-1.44 0-3.45-1.15l-4.04-3.46q-.57-.28-1.58-.57-1.01-.29-2.16-.58-1.44-.86-3.6-2.59t-4.46-4.61l-.29-2.01-1.44-2.02-.58-4.03q-.29-1.15-1.01-2.74-.72-1.58-1.29-3.6-.87-.29-2.31-2.3-1.72-4.03-1.72-5.47 0-.29.57-.87.58-.86.87-.86-.58-.87-2.88-2.31l-.29-3.16q2.01-1.44 2.59-1.44h2.02q.86-.29 2.01-.58t2.59-.58q1.44-.57 2.31.87.29 1.15 1.73 1.15.28 0 1.44-2.02l2.59-3.45q4.32 1.44 5.18 1.15l4.61-3.17H500v3.17l2.59 1.15-.57 4.32q0 .58.86 1.44.86.87.86 1.15.29.29-.28 1.44l-.87 1.44q.58 2.31 2.59 4.04.58 0 2.31.57 0 1.15 1.01 2.02 1 .86 2.16.29l.57 2.59q.58 1.44 1.15 1.44l1.16-.58q.57-.57 1.15-.57l1.44.28q.57 0 .86.29.29.29.58.29t1.15-.86q1.15-.58 1.44-.58.29-.29 2.02.29l1.72.57 1.16-.57.86-.29 1.73.58q.57-.58.57-1.16 0-2.3.87-6.04l2.59-.29q1.44 0 1.73-1.15l-.87-.87-1.15-1.15q-.29-1.15-.57-2.45-.29-1.29-.58-2.73 0-.87.86-1.73.87-.29 1.44-.87l-1.15.29q-1.44 0-2.3-2.88l-1.15-3.45q-.87-.58-1.44-1.44-1.16-1.16-1.16-2.31 0-.57.29-.86-.29-.58-1.73 0l-1.44-4.03q-.28 0-.28.28-.58.58-.87.58-.29-.29-1.15-.29l-.58-2.59-2.01-.86-3.46-3.17q-.29-.58-1.01-.87-.72-.28-1.87-.86l-.29-2.3q-.28-.58-.86-1.01-.58-.43-1.15-1.01h-1.44q-.29.29-1.44.29-.29.29-1.44-1.44-.58-1.15-1.15-1.87-.58-.72-1.16-1.01l-4.6-2.88-2.31-.87-.29-2.59-4.89-2.59-1.15-2.02q-.58-1.44-2.31-1.44h-.29q-.86-.86-.86-1.72-4.03-6.63-4.32-6.63l-1.73.58h-.29q-1.44 0-1.72-2.02l-.87-3.45q-2.88 0-3.74-6.63l-2.59-1.15q-.29-2.02-.44-2.88-.14-.86-.14-.58.29-2.59.58-2.01-.29-1.44-1.73-2.02-.87 0-1.44-.86-.29-3.17 0-6.19.29-3.03.57-6.2 0-.86-.57-2.59l-.87-2.01.87-1.16v-1.15q0-2.88 1.15-6.33.29 0 1.15-.15.87-.14 1.44-1.01l-1.73-3.74 3.75-7.2q2.3-4.03 3.74-4.03l1.73.29q.29 0 .58-.29 0-.29-.58-2.31h1.73l1.73-2.3q.57-.58 3.16-1.15l1.16-3.17h1.15q.29.29.57.58.29.28.58.86 2.02-.86 3.46-4.03l2.59-2.02h.43q.43 0 1.3-.29l1.44.29q.86.29 1.44.29.86 0 2.88-2.02 2.3-1.72 2.59-1.72l2.59 1.44q0 .86.29 1.44l4.61-2.31q.86 0 4.32 2.59.57.87 0 4.04l.86-.29.29-1.15q.57-.29 1.15-.87.58-.57 1.44-1.15 0-.58.86-1.73.29.29.72.58.44.29 1.01.86 1.15 1.15 1.73 1.15.58-.57 1.73-.86h.57q2.6 0 5.76 2.02l3.75 2.88.29 1.44q-.58 0-1.44.86.86 1.44 2.59 1.44v1.15q.57.29 2.01-.29.58 1.73 2.88 1.73.58 0 1.44 1.44-.28.87 0 2.02 3.17 5.76 3.17 5.18v.29q0 .86-1.15 3.17-1.44 3.45-1.44 3.74 0 1.15 3.46 1.73 3.16.58 2.88 1.15l1.44 2.02q-.29.29-.29 1.15 0 .86.57 2.59 1.16 2.59 1.16 3.75-.58.57-1.44 1.29-.87.72-2.02 1.59-.58.28-1.87.57-1.3.29-3.6.58l-6.34.86q-.57.29-1.44.58-.86.29-1.73.57l-3.45-1.15q-1.73.58-2.59 3.17-1.16 2.88-2.31 2.88-.29 0-.86-1.44-.87-1.44-1.15-1.44-.29 0-1.16.86l-1.72.29-.58-2.01q0-1.16.86-2.02.58-1.15.58-1.44l-1.44-1.73q1.15-.86 2.02-3.45-1.73 0-4.32-.87 0-.57-.29-1.58-.29-1.01-.87-2.16l-1.15-3.17q-1.44-2.02-5.76-3.17l-2.59.29q-.58 0-1.3.14-.72.15-1.87.44-.86 0-2.3-2.6-.58 0-.58 1.16l1.44 2.88q-3.17 2.59-5.18 2.3v4.32q-.58.58-.87 1.15 0 .58.15 1.44.14.87.43 2.02.58 2.59.29 3.45 0 .29-.29.58-.58.58-.58 1.44 0 .58.87 1.44l.57 1.15q0 .29-2.01 2.31-2.02 2.01-2.02 2.3.29 5.47 4.32 5.47h.87q.86 0 1.72-.14.87-.15 1.73-.15 1.15 0 2.31.15 1.15.14 2.3.43v2.88q0 1.73 3.74 4.9.58 0 1.59.14 1.01.14 2.16.43l.86 1.73q.58.29 2.02 1.73l1.15 2.3q.58.87 1.15.87 2.31-.29 2.88-.58.29 0 0 0 .87 7.49 1.15 7.49l3.17-3.75h.87l1.15 3.17q.29.29.43.29h.14l1.73-.58q1.15.29.87 2.88l2.88 1.44q.28 0 2.01 2.31 2.59 0 3.75 2.01.28.58.57 1.3.29.72.87 1.87l2.3 1.15v1.44q0 .87.29 2.31 0 1.44.57 2.01.29 0 2.02-2.01 1.44.29 2.02 2.88.57 2.3 1.72 2.3.58 0 .87-.29.29.87.29 1.88v2.16q0 .86 1.15 1.58 1.15.72 2.01.43l1.16 3.75q.57 1.44-.87 2.01.58.58 1.15.29l-.28 1.44 1.44 2.3.28 2.31q.87.86 1.16 1.44 1.15 1.44 1.44 9.5-.29.87-.29 3.46l-1.15 1.73q.57 1.15.86 4.32l-1.15 1.15q0 1.73-3.17 9.5l-1.15-.86q-.87.29-.87 1.73 0 3.74-.28 4.03l-2.88 1.73q.28 2.01 0 2.88l-4.61 3.74-1.15 1.73q-2.02 1.44-3.89 2.73-1.87 1.3-3.89 1.88-.29 0-1.01.14t-1.87.43q-1.15 1.44-4.03 3.46l-2.88-.87-1.73.87q-.58.57-3.46.57h-4.6q-1.16.29-2.16.58-1.01.29-2.45.58M486.46 39.22q.29-.29 2.02-.87l2.3.29 2.31.58q2.3-.58 2.3-2.6l-.29-1.15-4.03.58q-1.44 0-2.88 1.15-2.01-1.44-2.88-1.44.29.58.58 1.44t.57 2.02m-5.47-.58q.87.58 1.44-1.15-.57-.58-1.15 0-.58.57-.29 1.15m58.47.86 1.15-1.15q0-.29-1.15 0Zm3.74 1.44q.86.29 1.73-.86-.29-.29-.87-.29-.86 0-.86 1.15m-48.96 3.17q0-1.15-.58-1.15-.28-.58-1.15.29 0 .86 1.73.86m-20.45 8.35q.29.29.43.58.15.29.44.58v-1.16Zm39.75 30.82q.57 0 1.15-.58.57-.57-.58-1.15-.57.58-.57 1.73m-22.47 0q0-.58-.57-1.15-.58-.58-1.16.57 0 .87 1.73.58m40.9 36.58q.57 0 1.15-.58 0-.86-.58-1.44-.86.58-.57 2.02m12.09 4.03q0-.58-.57-1.15-.87-.58-1.44.57.57.87 2.01.58m4.9 10.94q0-.86-.86-1.15-.58 0-1.16.58.58.86 2.02.57m-16.42.87q.29.28 0 .28l.29-.28Zm-43.48 6.33 1.15-.86-.58-.58-.29.58q-.28.57-.28.86m10.08 32.55 1.15-.29q.29-.29 2.01-.29l3.46-4.03q-.58-.58-1.15-1.87-.58-1.3-1.15-3.03v-.86q0-1.44.86-2.31l-2.88.29 1.73 5.76q0 2.31-.58 1.73l-.29-.29h-.57q-.58.87-3.17 3.46.58.57.58 1.73m14.4-9.51q0-.29-.87-1.15l-.57.58.57.28q.58.29.87.29m-19.01 3.75q0-.58-.58-1.16-.29-.57-1.15.29 0 .87 1.73.87m19.58.57q.29-.57-.29-1.15-.28-.58-1.44.58.58.86 1.73.57"></path><rect width="96.2" height="180" x="-48.1" y="-90" fill="none" rx="0" ry="0" transform="translate(514.9 95.16)"></rect></svg></svg>