<svg xmlns="http://www.w3.org/2000/svg" version="1.1" xmlns:xlink="http://www.w3.org/1999/xlink" width="1500" height="228" viewBox="0 0 1500 228"><svg xml:space="preserve" width="1500" height="228" data-version="2" data-id="lg_AHnuEGwBUMNBtsdf2y" viewBox="0 0 692 228" x="0" y="0"><rect width="100%" height="100%" fill="transparent"></rect><path fill="#ffdc00" d="M19.65 219.025q-.7 0-2.45-1.05l-.7-10.5q-.35-2.1-.17-3.5.17-1.4.17-1.75l-.35-2.1q-.35-.7-.52-1.05-.18-.35-.18-.7v-1.75q0-6.3 2.45-7.35 0-.35-1.75-1.4.35-1.4 0-3.85l-1.05-3.15.7-2.1q.35-1.05.35-1.75 0-3.5-.35-3.85-.35-1.4-.35-2.8v-3.15l.35-5.6q-.7-3.85-1.4-7.88-.7-4.02-1.4-8.22 0-2.8 1.05-5.25l2.1 1.4q.7-.7.7-2.1 0-2.8-2.1-2.8-.7 0-1.05.35-.35 0-1.05-1.05v-3.85q0-2.8.18-5.08.17-2.27.52-3.67.7-2.8 0-3.85l-1.05-1.75v-2.1q0-1.05.35-2.1 0-.35.7-1.75l.7-1.75-1.75-1.75-.35-2.8v-3.85q-1.4-2.1-1.75-3.85.35 0 1.4-2.8.35-1.05.35-2.1v-1.75q-.35-4.2-.35-4.55l1.75-2.1q-2.8-2.8-2.8-6.65v-3.5l-.35-.35q1.05 0 0-3.15l-.35-1.05q3.15-3.15 3.85-7h-1.05q-2.45 0-2.45-1.4 0-1.05.7-1.75l-.7-4.2q.35-.7.88-1.93.52-1.22.52-1.57l-2.8-7.7q0-3.15 2.8-5.25 0-.7-1.05-1.05l-2.1-.7v-1.4q.7-1.4 1.23-3.15.52-1.75.87-3.5l-2.45-3.15-1.05-18.2q2.1-1.05 5.25-2.1.35 0 .7.17.35.18 1.05.53 1.05 1.05 1.4 1.05l5.25-2.8q0 .35.7 1.05v4.9l-.35.7 3.5-.35.7-3.15q1.05.35 1.58.52l.52.18q.7 0 1.4-.7 0-2.1.35-2.45.35.35 1.75.35l2.1-.35q1.05-.35 2.1-.35t1.4.35 1.4.35h1.75q1.05 0 2.1-.35l.7-.7q.35-.35 1.05-.7 2.1 0 2.1 2.1 0 1.4-.7 2.1l-1.75 1.05q.7.7 1.4 1.92.7 1.23 1.4 2.28-.7.7-1.75 6.65l.7 5.6q-.35.35-1.05 2.1-1.05 1.4-1.05 2.1l.7 2.45q1.05 1.05 1.4 1.75l2.1 8.75q0 1.05-1.4 2.1.35 1.05.53 2.1.17 1.05.17 2.1.35 5.95.53 9.97.17 4.03-.18 5.78l-.35 1.75q-.35.7-.52 1.05-.18.35-.18.7t1.05 1.05q1.05 1.05 1.05 3.15l-.35 3.15-.7 3.15 1.05 2.8v4.9q0 5.25.35 6.3l1.05 4.55q0 1.75-.17 3.85-.18 2.1-.53 3.85l-1.75 2.45 3.85 3.5v3.5l-2.8 1.4 1.4 1.4q-.35 1.05-.35 4.2 1.05.7 1.75 2.8l-1.75 2.8q-2.1 2.45-2.1 3.15l1.75 4.2q0 .35 1.75 1.05l-1.05 4.9q.7.35 2.1 2.45-2.1 1.05-3.85 1.05-.35-.35-2.8-.35-1.75 0-3.15 3.5 0 3.15 1.4 3.15 1.4-.35 2.45-2.1l2.1-2.8q.7.35 3.15 1.05l-.35 2.1q1.05 1.05 1.4 2.1-.35 2.45-.35 6.3v9.8l-1.05 2.45q1.4 1.05 1.4 3.15 0 3.85-2.1 4.9l1.75 1.05q.35.35 1.05 1.22.7.88 1.4 1.93.7.35-1.4 2.45l.35 2.1h2.1q.7-2.1 1.4-5.6 1.75.35 3.15-.35h1.4q1.05 2.8 2.1 2.45l2.45-1.75q1.75-1.75 2.45-1.75 2.1 0 2.45 2.1l.7 3.15h.7q.35-.35 1.4-3.85 0-.35 1.05-.35.7-.7 1.4 1.4l1.4 2.1q2.45-2.45 1.75-3.85l3.15-.7q1.4.35 2.98.7 1.57.35 3.32.7l2.8-1.4 1.4.35 1.05.35q2.8-.7 3.15-1.75.7-1.05 2.45-1.05 1.75-.7 2.8.7.35.7.7 2.1.35 1.4 1.05 3.15l-1.4 2.8 1.75 4.2-.35 2.45q-.35 1.4-.35 2.1v1.4l.35 3.15q0 .7-1.05 2.8l-.7 2.1 1.05 1.75q1.05 1.4 1.05 1.75-.35 1.4-.35 2.97v3.68l-4.9.35q-.35.35-1.22.7-.88.35-1.93.7-3.15-1.4-6.65-1.75-.35 0-1.75.7-1.05 1.05-1.4 1.05l-4.2-1.05-7.35 1.05q-.35 0-.52-.18-.18-.17-.53-.17l-1.4-.35-3.15 1.75-2.1-1.05q-1.05-.7-1.75-.7H63.4l-3.15 1.05q-1.4.35-2.1.87-.7.53-1.05.53l-4.55-.35q-2.45-.35-3.5-.35h-1.4l-1.05.35q-.35 0-.52.17-.18.18-.53.18l-2.1-.7H42.4q-.7 0-1.4.35l-2.45.7q-.7-.7-1.75-1.05l-2.8 1.05q-.7 0-1.05-.35-.35-.35-1.4-.35l-7 1.75q-1.05 0-2.8-1.75-.7 1.4-2.1 1.75m17.5-204.4q.7 0 1.4-.7v-1.4q-.35-.35-1.4-.35Zm-25.55 2.1q1.75-1.75 1.75-2.45l-.7-1.4H10.9q0 .7.18 1.57.17.88.52 2.28m34.3-2.8v-.35q-.35.35 0 .35m-32.55 10.15v-1.4h-.7l.35 1.4Zm13.3 5.25v-1.05q0-.7-.17-1.58-.18-.87-.53-1.92-1.4 1.4-1.4 2.8 0 1.05 1.05 1.75Zm5.25 17.85q5.6-.35 5.6-6.3 0-3.85-2.45-2.8-.35 1.4-2.1 3.5l-2.8 1.05-.35 2.1v.7q0 1.75 2.1 1.75m-12.6 11.9q0-.7-.7-1.4-.35-.7-1.4.35 0 1.05 2.1 1.05m-.7 28.7q1.05.35 2.1-1.4-.35-.35-1.05-.35-1.05 0-1.05 1.75m-7.35-.7.35-.35Zm29.4 6.65q1.75-1.05 2.1-2.1-1.4-1.05-2.1-1.05-.7 0-2.45 2.8Zm-30.45 3.85v.35zm11.2 7.35q1.75-1.75 2.1-2.8-1.75.35-3.85 2.45h1.05q.35 0 .35.17 0 .18.35.18m11.9 85.05q.35-.35.7-.35t.7-.35q0-.35-.7-1.05Zm27.3 5.6 1.75-.35v-.35H60.6Zm14.35 3.15q.7-.7-.35-2.1-2.8 1.75.35 2.1m-30.1 9.1q1.4-2.1 2.8-3.5v-3.85q-2.1-2.1-4.2-1.4l-3.15 1.4q-1.05.35-1.05 3.85l3.85-.35h.35q.7 0 .7 1.75 0 2.1.35 2.1Zm-24.5-5.95q1.05.35 1.75-.7.7-.7-.7-1.4-1.05.35-1.05 2.1m74.55 6.3q1.05 0 2.1-1.75-1.05-.7-1.75 0-.35.35-.35 1.75"></path><rect width="96.6" height="214.9" x="-48.3" y="-107.45" fill="none" rx="0" ry="0" transform="translate(55.85 112.08)"></rect><path fill="#ffdc00" d="M119.05 219.025q-.7 0-2.45-1.05l-.7-10.5q-.35-2.1-.17-3.5.17-1.4.17-1.75l-.35-2.1q-.35-.7-.52-1.05-.18-.35-.18-.7v-1.75q0-6.3 2.45-7.35 0-.35-1.75-1.4.35-1.4 0-3.85l-1.05-3.15.7-2.1q.35-1.05.35-1.75 0-3.5-.35-3.85-.35-1.4-.35-2.8v-3.15l.35-5.6q-.7-3.85-1.4-7.88-.7-4.02-1.4-8.22 0-2.8 1.05-5.25l2.1 1.4q.7-.7.7-2.1 0-2.8-2.1-2.8-.7 0-1.05.35-.35 0-1.05-1.05v-3.85q0-2.8.18-5.08.17-2.27.52-3.67.7-2.8 0-3.85l-1.05-1.75v-2.1q0-1.05.35-2.1 0-.35.7-1.75l.7-1.75-1.75-1.75-.35-2.8v-3.85q-1.4-2.1-1.75-3.85.35 0 1.4-2.8.35-1.05.35-2.1v-1.75q-.35-4.2-.35-4.55l1.75-2.1q-2.8-2.8-2.8-6.65v-3.5l-.35-.35q1.05 0 0-3.15l-.35-1.05q3.15-3.15 3.85-7h-1.05q-2.45 0-2.45-1.4 0-1.05.7-1.75l-.7-4.2q.35-.7.88-1.93.52-1.22.52-1.57l-2.8-7.7q0-3.15 2.8-5.25 0-.7-1.05-1.05l-2.1-.7v-1.4q.7-1.4 1.23-3.15.52-1.75.87-3.5l-2.45-3.15-1.05-18.2q2.1-1.05 5.25-2.1.35 0 .7.17.35.18 1.05.53 1.05 1.05 1.4 1.05l5.25-2.8q0 .35.7 1.05v4.9l-.35.7 3.5-.35.7-3.15q1.05.35 1.58.52l.52.18q.7 0 1.4-.7 0-2.1.35-2.45.35.35 1.75.35l2.1-.35q1.05-.35 2.1-.35t1.4.35 1.4.35H139q1.05 0 2.1-.35l.7-.7q.35-.35 1.05-.7 2.1 0 2.1 2.1 0 1.4-.7 2.1l-1.75 1.05q.7.7 1.4 1.92.7 1.23 1.4 2.28-.7.7-1.75 6.65l.7 5.6q-.35.35-1.05 2.1-1.05 1.4-1.05 2.1l.7 2.45q1.05 1.05 1.4 1.75l2.1 8.75q0 1.05-1.4 2.1.35 1.05.53 2.1.17 1.05.17 2.1.35 5.95.53 9.97.17 4.03-.18 5.78l-.35 1.75q-.35.7-.52 1.05-.18.35-.18.7t1.05 1.05q1.05 1.05 1.05 3.15l-.35 3.15-.7 3.15 1.05 2.8v4.9q0 5.25.35 6.3l1.05 4.55q0 1.75-.17 3.85-.18 2.1-.53 3.85l-1.75 2.45 3.85 3.5v3.5l-2.8 1.4 1.4 1.4q-.35 1.05-.35 4.2 1.05.7 1.75 2.8l-1.75 2.8q-2.1 2.45-2.1 3.15l1.75 4.2q0 .35 1.75 1.05l-1.05 4.9q.7.35 2.1 2.45-2.1 1.05-3.85 1.05-.35-.35-2.8-.35-1.75 0-3.15 3.5 0 3.15 1.4 3.15 1.4-.35 2.45-2.1l2.1-2.8q.7.35 3.15 1.05l-.35 2.1q1.05 1.05 1.4 2.1-.35 2.45-.35 6.3v9.8l-1.05 2.45q1.4 1.05 1.4 3.15 0 3.85-2.1 4.9l1.75 1.05q.35.35 1.05 1.22.7.88 1.4 1.93.7.35-1.4 2.45l.35 2.1h2.1q.7-2.1 1.4-5.6 1.75.35 3.15-.35h1.4q1.05 2.8 2.1 2.45l2.45-1.75q1.75-1.75 2.45-1.75 2.1 0 2.45 2.1l.7 3.15h.7q.35-.35 1.4-3.85 0-.35 1.05-.35.7-.7 1.4 1.4l1.4 2.1q2.45-2.45 1.75-3.85l3.15-.7q1.4.35 2.98.7 1.57.35 3.32.7l2.8-1.4 1.4.35 1.05.35q2.8-.7 3.15-1.75.7-1.05 2.45-1.05 1.75-.7 2.8.7.35.7.7 2.1.35 1.4 1.05 3.15l-1.4 2.8 1.75 4.2-.35 2.45q-.35 1.4-.35 2.1v1.4l.35 3.15q0 .7-1.05 2.8l-.7 2.1 1.05 1.75q1.05 1.4 1.05 1.75-.35 1.4-.35 2.97v3.68l-4.9.35q-.35.35-1.22.7-.88.35-1.93.7-3.15-1.4-6.65-1.75-.35 0-1.75.7-1.05 1.05-1.4 1.05l-4.2-1.05-7.35 1.05q-.35 0-.52-.18-.18-.17-.53-.17l-1.4-.35-3.15 1.75-2.1-1.05q-1.05-.7-1.75-.7h-1.05l-3.15 1.05q-1.4.35-2.1.87-.7.53-1.05.53l-4.55-.35q-2.45-.35-3.5-.35h-1.4l-1.05.35q-.35 0-.52.17-.18.18-.53.18l-2.1-.7h-1.05q-.7 0-1.4.35l-2.45.7q-.7-.7-1.75-1.05l-2.8 1.05q-.7 0-1.05-.35-.35-.35-1.4-.35l-7 1.75q-1.05 0-2.8-1.75-.7 1.4-2.1 1.75m17.5-204.4q.7 0 1.4-.7v-1.4q-.35-.35-1.4-.35Zm-25.55 2.1q1.75-1.75 1.75-2.45l-.7-1.4h-1.75q0 .7.18 1.57.17.88.52 2.28m34.3-2.8v-.35q-.35.35 0 .35m-32.55 10.15v-1.4h-.7l.35 1.4Zm13.3 5.25v-1.05q0-.7-.17-1.58-.18-.87-.53-1.92-1.4 1.4-1.4 2.8 0 1.05 1.05 1.75Zm5.25 17.85q5.6-.35 5.6-6.3 0-3.85-2.45-2.8-.35 1.4-2.1 3.5l-2.8 1.05-.35 2.1v.7q0 1.75 2.1 1.75m-12.6 11.9q0-.7-.7-1.4-.35-.7-1.4.35 0 1.05 2.1 1.05m-.7 28.7q1.05.35 2.1-1.4-.35-.35-1.05-.35-1.05 0-1.05 1.75m-7.35-.7.35-.35Zm29.4 6.65q1.75-1.05 2.1-2.1-1.4-1.05-2.1-1.05-.7 0-2.45 2.8Zm-30.45 3.85v.35zm11.2 7.35q1.75-1.75 2.1-2.8-1.75.35-3.85 2.45h1.05q.35 0 .35.17 0 .18.35.18m11.9 85.05q.35-.35.7-.35t.7-.35q0-.35-.7-1.05Zm27.3 5.6 1.75-.35v-.35H160Zm14.35 3.15q.7-.7-.35-2.1-2.8 1.75.35 2.1m-30.1 9.1q1.4-2.1 2.8-3.5v-3.85q-2.1-2.1-4.2-1.4l-3.15 1.4q-1.05.35-1.05 3.85l3.85-.35h.35q.7 0 .7 1.75 0 2.1.35 2.1Zm-24.5-5.95q1.05.35 1.75-.7.7-.7-.7-1.4-1.05.35-1.05 2.1m74.55 6.3q1.05 0 2.1-1.75-1.05-.7-1.75 0-.35.35-.35 1.75"></path><rect width="96.6" height="214.9" x="-48.3" y="-107.45" fill="none" rx="0" ry="0" transform="translate(155.25 112.08)"></rect><path fill="#ffdc00" d="M300 224.975q-3.15-.7-4.55-2.8 0 .35-1.05 1.05-1.05.35-1.92.52-.88.18-1.58.18l-3.5-2.1-2.45-1.75q-7.7 2.45-9.1 2.45-1.05 0-4.55-3.5l.7-2.1v-3.5q-.35-1.05-.35-4.9l.35-5.25q-.35-.35-.35-1.75 0-.7.18-1.58.17-.87.52-1.92-.7-5.95-1.05-9.63-.35-3.67-.35-4.72l1.75-3.5q-3.85-2.8-3.85-4.2 0-1.05 2.8-3.15-.7 0-1.05-1.4-.35-1.4-1.05-1.4.35-1.05.35-4.55l-.35-4.55 2.45-1.4q-.7-1.75-1.75-2.45v-2.45q-2.1-4.2-2.1-4.55 0-.35 1.05-1.75 1.05-1.05 1.05-1.75l-.35-1.4q-.7-1.4-.7-1.75l.7-7q-.7-.7-1.05-1.75v-3.5q0-.35-.35-.7-.7-.7-.35-1.05 0-2.8 3.15-7.35-.35-.7-3.15-1.4-1.75 0-1.75-1.75v-1.05h-1.05l.35 1.75v.17q0 .18-.35.53-2.1 0-2.45 2.45 0 .7-1.05 1.75l.35 1.75q-.35.35-1.05 1.75 1.05 2.1 0 3.85-2.45 4.2-2.8 3.85l-.35-.35h-.7q-2.1-.7-2.1 5.25v5.95q.35.7.7 1.75t.7 2.45l-.35 5.95h-1.4q-.7-2.1-1.4-2.45h-1.05l-.7.35q2.8 4.9 2.8 5.95-.7 2.8-2.1 2.45-.7-.7-1.57-1.23-.88-.52-1.93-.87-1.05 0-1.05.35t2.1 2.1q.35 2.45 2.8 3.15l-.35 5.95-3.85-.35q.35 2.8.35 4.37v1.93l-.35 1.05q0 .35-.35.52-.35.18-.35.53l.7 3.15q.35 1.4.35 2.27v1.23q-.35.35-.87 1.22-.53.88-1.23 2.63l-1.4 4.2q-1.05 2.45-3.5 3.85 0 2.1 1.05 3.85t.7 3.85q-.35.7-1.05 2.27-.7 1.58-1.4 3.68-.35.35 0 4.2-1.05 2.1-3.5 1.75l-2.45-1.05q-1.4-.7-2.45-.7l-2.45.7-3.15.7q-.35-.35-1.22-.7-.88-.35-1.93-.35h-3.5q-.35 0-1.22-.35-.88-.35-2.28-.7l-3.5-.7q-.35 0-1.75.7-1.4 1.05-1.75.7-1.05 0-2.1-3.15-1.05-.7-1.05-1.75l1.05-3.5v-1.05q0-1.75-1.05-2.8l1.4-.7h.35v.7q.7-.7 1.05-2.1h-1.4q-1.4 0-1.4-3.5v-4.2q0-4.2-.7-3.5 3.15-1.4 3.5-2.45 0-1.05-3.85-3.85l.7-1.75-.7-1.4q-.35-2.45-1.4-3.85.7-5.95 1.05-9.98.35-4.02.35-5.42l-1.4-5.6q0-.7 1.4-2.1l1.4-1.4q-.35.35-1.75-3.5.7-.7 0-2.45-.35-.7-1.05-1.58-.7-.87-1.4-2.27.35-.7.35-2.45l-.35-1.05q0-.35-.35-.53-.35-.17-.35-.52l.35-7.35v-1.4q0-1.05-.35-2.45l.7-2.1q3.5-2.1 3.5-4.2t-5.25-6.65q-.35-1.75-.35-3.85v-7.7q0-2.45-.7-3.15.7-1.4.7-3.15-1.05-1.75-2.1-4.55.35-1.05.35-2.8v-4.2q-.35-2.45-.7-2.8.7-1.05 1.23-2.45.52-1.4 1.22-3.15 3.15-1.75 3.85-3.85v-1.05q0-2.1-1.05-3.15-1.75 1.4-2.45 6.3h-.35q-.35 0-.52.17-.18.18-.53.18-.7 0-1.75-1.75 1.4-4.55 1.4-5.95 0-.7-1.05-1.75l.35-4.9q-1.05-1.75-2.1-5.6l.35-8.4q0-.7-.35-1.75l-.35-1.4-.7-11.55q0-1.4 1.05-3.85l1.05-1.05q.7-.7 2.1-1.4-.35-.7-3.15-1.05l-1.05-.7q-.35-3.85-2.1-10.5 1.4-1.4 2.8-1.05 0-.35.7-1.05-2.1-1.75-3.15-5.25l.35-4.9q.7.35 1.93.87 1.22.53 2.62 1.23.35-.35 1.05-.35.7 0 1.75-.35l2.8 1.4q.7-.35 1.93-.7 1.22-.35 2.62-.7l3.5 1.05h.7q1.75 0 3.15-1.05l1.4 1.4q.7.7 1.75 1.4.7 0 2.45-1.75l1.05.35v2.45q-.35 1.4 1.05 1.75 1.4 0 1.75-1.05.35-.7 0-1.93l-.35-1.22 1.75.35 2.45 1.05h2.45l.7 1.4-1.05 12.95q-1.75 1.05-3.85 3.85l1.75 2.8q1.4 2.45 1.4 2.8-.35 2.1-2.8 2.1h-1.75q-1.05 0-2.1-.35-.35.35-.35 1.75 1.75 1.75 2.8 2.1 1.4 0 2.8-1.4l1.75 2.45 1.4 2.1-1.05 2.45q-.35 1.4 0 4.2 0 .7-.35 1.05-1.75 0-1.75 2.1t.7 3.5q-1.75 1.4-1.75 2.45 0 2.1 1.4 1.05h1.4l1.4 4.55q-.7 1.4-1.4 2.27-.7.88-1.4 1.58l-.7 7.7q3.15 1.75 2.8 3.85 0 .35-.7 1.05-1.05 1.05-1.05 1.75l.7 2.45q.35 1.05.7 1.75t.35 1.05l1.4 1.05q0 .7-.17 1.75-.18 1.05-.18 2.8l-.7 9.8v.35q0 1.75 1.05 7l-1.05 1.4q-.35.35-.35 1.05h.53q.17 0 .52.35 2.1 0 5.6-5.6-.35-.35.35-2.1.7-2.1 2.1-1.75 0-.7-1.05-1.05-.35-.7-.35-3.5l3.15-10.85q.35-1.05.35-4.9l1.05-1.05v-3.5q.35-.35.35-1.4l1.4-1.75q0-1.4.18-3.33.17-1.92.52-4.37.7-3.85 2.8-3.85 2.1.7 3.15 1.4l.7-.35q0-1.4-1.05-1.75-1.4 0-2.1-.7-.35-.7-.52-1.58-.18-.87-.53-2.27l2.45-1.75q.7-2.1.7-3.15l.7-2.8-.7-3.15q-.7-2.8-.35-3.15 0-1.4 1.4-2.8l-.7-3.15q0-.7 3.85-3.5-2.1-3.85-2.1-3.5l.7-3.85q2.1-1.75 2.1-4.55v-2.45l.7-.7q.35-.35.7-1.05l.7-4.2q.35-3.5 3.5-3.5.35.35 2.45 1.4 2.1 1.05 2.45 1.05 1.05 0 2.45-2.1l1.05.35.7.7q.35.35 1.05.7.35-.35 2.45-.35 1.05 2.45 2.1 2.45 2.1 0 2.45-.35.35-.35-.35-.35h.7l.35.35q1.05 1.05 1.75-1.05 1.75.7 2.45 1.75l.7 5.95q.35-.35 2.1-6.65.35-.35 1.05-.35.35 0 4.9 2.8l-.35.7q-.35.7-1.05 1.75.35.7.35 3.85h-.7q.35.35.35 1.4l-.35 1.05v3.85l1.4 1.4v3.5l.7.7q.35.35.35 1.4-.7.7-1.05 3.5-1.05 3.15-1.4 3.5l1.4 3.15v1.22q0 .88-.35 2.63l.7 1.05q.35.7.35 1.4l-.7.7-1.05 1.05v4.2q1.05 1.4 2.1 4.2l-1.4 8.4 1.05 1.4q.7 1.4.35 3.5.35 1.75.7 1.75l-2.45 4.55.53.52q.52.53 1.22 1.93l-.7 3.15q-1.05-1.05-2.1-1.4-1.4 14-1.05 14.7 5.25 5.6 5.25 7.35l-2.45 3.85-2.1.7v1.05q-.35.35.35.35.35-.35 1.4-.35l3.5 1.4q0 1.75-2.45 3.15.35.7 2.8 1.4 1.75 0 2.45-.7v-.7q0-1.4-1.05-2.8 4.55-1.05 4.9-3.5 0-1.4-.7-1.4l-2.1-.7 2.8-1.05q2.45-1.75.7-5.25l1.05-9.8q.7-.7 1.4-1.93.7-1.22 1.4-2.62l.35-6.65v-3.85l2.1-5.25q.7-1.05 2.1-.7.35-2.1-.35-3.5l-1.05-2.45q1.05-1.05 1.4-2.45v-4.2q0-2.8 1.4-5.95l1.75-2.45q-.7-1.05-1.05-3.5.7-4.55 1.05-5.95 1.4-1.4 2.8-3.85l-.35-3.15-.7-2.8q2.45-5.25 3.85-10.85v-.7q0-1.05-1.05-3.15l.7-1.05q2.1-1.75 4.2-1.05l2.1.7q1.4.7 1.75.7h.35q1.4 0 2.8-1.4 1.05 1.05 2.1 1.4h1.4l1.75-.35q.35 0 1.75.7.35 0 1.75-.7l1.4-.35q1.05 1.05 3.5 2.1l6.3-.7q.35.35.88.35.52 0 .87.35h2.28q.87 0 1.92-.35l1.05.35v1.75q0 .35-.7 1.05l-2.1 7q-.7 1.75-1.75 2.1.35.7.35 2.8l-1.05 2.45q1.05 2.45.35 4.2l-2.45 2.8q-.35.35 0 .7-.35 1.4-2.45 2.45.7.35 1.05 2.1l-2.45 5.25q.35.35 2.45.35-.35 1.4.35 2.45l-3.5 3.5q.35 2.8.7 3.15l-2.1 3.15v1.57q0 .88-.35 2.28-.35.35-.87.7-.53.35-1.23 1.05l1.75 2.45h-2.45q-2.8.7-1.75 1.05-.35 0-1.05-1.05-2.1 1.4-2.45 2.8 0 .7.7 1.05.35-.35 5.6-.7.7 2.1.7 2.45-1.4 1.4-1.75 2.45-1.4 2.45-1.4 6.3l-2.1 3.15q.35.35.35 1.22 0 .88.35 2.28-1.4.35-2.45 0l-1.75-.7q-.35 0-1.05.7-2.1.35-2.8 2.8l2.45 4.9q2.8-2.8 4.2-4.9-1.4 7.7-1.05 8.4l-5.95 14.7q-1.4.35-3.5 0-.35.35-.35 1.75l1.05.7 1.05-.35h.7q.7 2.1.7 2.8-.35.35-1.22 2.45-.88 2.1-.88 2.45 0 1.05 1.05 3.85v1.75q-.7.7-2.45 1.4-2.1 1.4-2.1 3.15 0 1.05 2.1 2.8 0 .7-1.05 2.45-1.05 1.4-1.05 4.55-.7 3.15-2.1 5.6-1.4.35-3.15 2.8v2.45q0 1.05.35 2.45-2.1.35-2.1 1.4 0 .7.7 1.4.7 1.4.7 1.75-.7.7-1.4 2.45 0 1.4-.17 3.85-.18 2.45-.53 5.25-3.85 1.75-3.15 4.55l.35 2.45q0 .7.18 1.4.17.7.17 1.05 0 1.75-.35 2.45l-3.15 3.85q-2.45 3.85-2.45 5.6 1.05.7 1.4 2.45l-1.05 9.1q-2.1 2.1-3.85 5.25l.7 2.45v.35q0 1.75-1.4 4.9-3.15 1.4-4.9 1.4M223.35 4.825H223zm-17.85 11.9q.35-.35 1.75-1.05-.35-.35-1.75 0Zm4.2 2.8q1.4.7 2.1-.7-.7-.7-1.05-.7-1.05 0-1.05 1.4m128.8 5.95q2.1-2.1 2.1-3.15v-.35q0-3.15-4.2-3.5-1.05-.35-1.75.35l-.35 1.05q0 1.05 2.1 2.8 2.1 2.1 2.1 2.8m-70 3.85q.35-.35 1.75-1.05 0-.7-1.75 0Zm4.2 2.8q1.05.35 2.1-1.05-.35-.35-1.05-.35-1.05 0-1.05 1.4m59.15 1.05q.35-1.05-.35-1.75-.35-.7-1.4.35 0 .7 1.75 1.4m-66.15 10.85q.35-.35-.7-1.4-.35 0-1.05.7l1.05.35q.35 0 .53.17zm0 5.6q.35-.7-.35-1.4t-1.4 0q0 .7 1.75 1.4m8.75.35v-1.4q-.35-.7-1.05 0Zm-69.3 9.1q1.4-1.75 1.4-3.15-.35-.7-2.8-2.45l-3.15 3.85q.7.35 1.93.7 1.22.35 2.62 1.05m-6.65 24.15v-.35Zm62.3 22.05q1.05.35 2.1-1.05-.35-.35-1.05-.35-1.05 0-1.05 1.4m-11.9 5.6q.7-.7.7-1.05 0-1.05-1.4-1.05-.7 1.05.7 2.1m25.55 0q1.05.35 2.1-1.05-.35-.35-1.05-.35-1.05 0-1.05 1.4M223 123.125q1.05.35 2.45-1.05-.35-.35-1.4-.35-1.05 0-1.05 1.4m73.15 2.8q.35 0-.7-1.4-.35 0-1.05.7Zm-84.7 2.8q.35-.35.35-1.05 0-1.05-1.4-1.05-.35 1.05 1.05 2.1m25.2 0q1.05.35 2.45-1.05-.35-.35-1.4-.35-1.05 0-1.05 1.4m59.5 2.8q.35-.7-.35-1.4t-1.75 0q.35.7 2.1 1.4m8.75.35v-1.4q-.35-.7-1.05 0Zm-88.2 15.05q.35-.7 3.15-3.5l.7-2.1 3.5-3.5q-2.8-2.8-2.8-3.15 0-2.45-.7-3.15l-2.1-.35v2.8l1.05 3.15q0 1.05-2.45 1.4v1.75q.35 0 .35.7t-1.75 5.25Zm87.15 14.35q0-1.05-.35-1.4-.35-.35-1.75.35 0 1.05 2.1 1.05m-14 4.9q.7.35 2.1-1.05-.7-.7-1.75-.35-.7.7-.35 1.4m-59.15 5.25h.18q.17 0 .52-.35l.7-.35q0-.35-.7-1.05Zm72.1 21.7q2.45 0 2.45-3.15 0-2.45-2.1-3.5v-2.1q-1.05-1.75.7-3.5l3.85-1.4-.35-1.05h-2.45l-1.05-.7q-.7-.35-2.1-.35l-.7 1.05-.7.7-1.4-.7q-1.05-.7-1.4-.35-.35.7-.35 2.45 0 4.55 1.4 5.95l1.75.35.7 1.4q.35.35 0 .7-.35 1.05 0 2.45.7 1.75 1.75 1.75m-86.8-11.55q1.05.35 1.75-.35.35-.35-.35-1.75-.7 0-1.4 2.1m15.4 23.1q0-1.05-.35-1.4-.7-.7-1.75 0 0 .7 2.1 1.4m65.1.7q.35-.7-.35-1.4-.35-.35-1.75.35 0 1.05 2.1 1.05m-14 4.9q.7.35 2.1-1.05-.35-.35-1.05-.35-1.05 0-1.05 1.4"></path><rect width="165.2" height="222.95" x="-82.6" y="-111.47" fill="none" rx="0" ry="0" transform="translate(276.7 114)"></rect><path fill="#ffdc00" d="M436.85 156.725q-1.4 0-6.65-1.75-2.45-.7-4.02-1.23-1.58-.52-2.98-.17-.7 1.05-3.15 1.75-1.05.35-3.15 0l-2.45.35h-5.77q-1.58 0-3.33.35-.7 0-1.4-.18-.7-.17-1.4-.52-.35.35-1.4.35-1.4 0-2.45-1.05-1.4-1.05-1.75-1.05-.35 0-1.75.7l-1.4-1.4q-1.4-1.05-1.4.35l.7.7q0 1.05-.35 1.4H378.4l-4.2-.7q-.35 0-1.05-.7-.7-.7-1.05-.7.7 0-1.05.7-1.4 1.05-3.85 1.05-.7 0-2.8-.7v-1.05l.7-1.4q.35-.35.35-1.05 0-1.05-1.75-3.85l.35-.7q.35-.35.35-.7l.7-4.9q0-.7-.35-1.4l-.35-1.05q0-1.05.35-2.45l.35-2.1v-.18q0-.17-.35-.52l-.7-1.05.18-.35q.17-.35.52-1.05h4.2q.7.7 1.4 1.05.7.35 3.15.35h2.8q2.1-.7 2.8 1.05.7 1.75 1.05 1.75l2.45-.7q.7 0 1.93-1.05 1.22-1.05 2.62-1.05 2.45-.35 4.2-.53 1.75-.17 3.15-.17.7 0 1.4.17.7.18 1.4.53.7.35 2.8-.35 0 .35.35.7h3.15l.53.35q.52.35.87.35.35-.35.7-1.75h4.73q1.22 0 2.62-.35l3.5-.35 1.4.7q1.05 1.05 3.5.7l-.35 1.4.35.35h1.75q.7-.7.7-2.1 6.65 0 7.35.35h8.4v3.5q-2.1 1.05-2.1 2.1l1.05 1.75.7 2.1.35 7.35v6.65q0 1.05-1.4 1.05-.35.35-1.4.35m-7.7-15.75q0-.7-1.4-.7.7.7 1.4.7m-50.75 8.05q1.75 0 1.75-1.4l-.35-1.05q2.45-.35 2.45-2.1l-1.4-1.4-1.4-.7q-1.05-.35-1.75-.35-1.75 0-1.75 1.4l.7 2.45 1.75 1.4q-.7 0-1.4.7.7 1.05 1.4 1.05m-5.6-3.85q1.05-.7 1.05-2.1 0-.35-1.75-.7-.7 1.4.7 2.8m30.1-1.05q.7 0 1.05-1.4-.7.7-1.05 1.4m17.15 3.15 1.05-1.05q-.35-1.05-2.45-.35.35 1.4 1.4 1.4"></path><rect width="75.95" height="26.25" x="-37.98" y="-13.13" fill="none" rx="0" ry="0" transform="translate(402.18 144.1)"></rect><path fill="#ffdc00" d="M500.9 222.525q-.35 0-.7-.35 0-3.15-1.05-5.6-.7 0-2.8 2.1-2.45 2.1-3.15 2.1l-9.1-2.45q-.35.35-1.75.35l-7-3.15q-.35 0-1.22-.18-.88-.17-1.93-.52l-4.2-2.45h-.35l-1.05.35q-1.05-1.4-3.85-3.15l-1.4-4.9q-1.75-1.05-2.45-2.1l-1.05-3.5q-1.05-.7-2.1-1.58-1.05-.87-2.45-2.27-.35-.7-.7-1.75t-1.05-2.45v-2.1q-.35-.7-.7-1.23-.35-.52-1.05-1.22-1.4-2.45-1.05-5.95l2.1-6.3-.7-1.4-1.05-1.75q-.35-1.05-.35-2.8.35-6.3 1.05-4.55l-.7-1.4q-1.05-1.05-1.05-1.75.7-3.85 1.4-5.25.7-.7 2.1-2.8l-.7-2.45-.35-1.75 1.75-2.8-1.05-1.4q.35-.35.35-2.1l-.7-5.25 1.75-3.15q.35-1.05-.35-2.8 0-.35.35-.35t.35-.7l.35-3.85-1.05-10.5q2.8-.7 2.8-2.1l-1.05-3.5q1.75-.7 3.5-2.1 1.75-1.4 3.85-2.8 0-2.45-2.1-2.8-1.4 0-1.75 1.4l-.7 2.1q-3.5-1.75-2.8-4.55l1.05-2.1v-2.1l2.1-2.1v.35q0-.35.35-1.75l-.35-2.8q-.35-1.05-.35-1.75v-1.05l1.4-4.2q.7-1.75.7-4.2v-4.9l.7-2.1v-3.15q0-1.75-.35-3.5.7-3.5 1.75-4.55 1.4-1.4 1.4-2.8l-.35-1.75q0-.7-.35-.88-.35-.17-.35-.52l1.05-4.55q.35 0 1.05-.7-1.4-3.5-1.05-6.65l.7-1.4q.35-.7.7-1.75l.35-3.15 3.5-2.8 1.75.35-2.45 1.75q.35.35.7 1.75h1.05l1.05-1.05v-2.45q1.4-.7 2.8-2.45-1.05-2.45-2.45-2.8l-.7.7-2.1-.35v-1.05q0-2.1 5.25-6.3.35-.35.35-2.1l2.8-2.1q.35-.7 2.45-2.8l6.65-4.9q.35.35 2.45 1.05-.7-.35 3.5-2.45.7-.35 1.93-.53 1.22-.17 2.97.18l2.1.7q2.1 0 2.1-1.75t1.4-1.75q1.75.7 1.75 1.05v2.1l1.4-1.4q1.05-1.75 1.05-2.45v-.7l3.85.7 2.1.35q2.8-.7 1.75-1.05 1.4.7 2.98 1.22 1.57.53 2.97 1.23.35.35 2.1-.35l2.45-.7 4.9-.35 9.8 5.6 3.5-.7q1.75.35 1.75.7.35.7.35 2.45l2.1 3.15.35 2.45q.35 1.05 2.45 1.75.7 0 2.1-1.05l1.4 2.1q.7 1.05 1.05 2.1l2.8 2.1 1.05 3.85v.35q0 2.1 1.4 3.85l2.45.35q.7.7.7 1.75 0 1.4-1.05 4.2l-.7 2.1q2.45 6.3 2.45 7.7 1.05 1.05 1.05 1.4l.35 1.75q0 .35.18.87.17.53.17.88-1.4.7-2.45 1.75l-2.45 2.45q2.45 2.45 2.45 5.25-.35.7-2.1 3.85l1.75 5.95q0 .35-1.05 1.4-1.05 1.05-1.05 1.4.7 1.4 1.05 3.15l.7 3.5q-.7 3.85-3.5 3.5l-8.4-2.1h-6.65q-.7-.7-2.45 0l-2.45.7q-.7 0-2.45-1.05l-2.45-.7h-7.35q-.7 0-3.15-1.75.7-1.05 1.05-2.45.35-1.4 0-2.8l-.35-1.75q0-.7-.17-.88-.18-.17-.18-.52l5.25-19.6-.7-4.2q-.35.35-1.05.35-1.75 0-1.4-3.5l.35-3.85q-2.1-4.2-3.5-4.55l-1.75 1.05q-.7.7-2.1.35l-6.3-2.45h-1.75q-1.05 0-2.8.35-1.4.35-2.1 2.1l-.7 2.45q-1.4.35-3.15 2.8-.35.35-.7 1.22-.35.88-1.05 1.93l.35 1.75q-.35 1.4-.52 2.97-.18 1.58-.88 3.68l-1.4 2.8q0 .35.35 2.1-.35 1.4-1.05 6.3-.35.7.35 3.15l.7 3.5q-2.1.35-2.1 1.75 0 .35.35 1.05.35.7.7 1.75l.7 2.45q-.35.35-2.27 3.85-1.93 3.5-1.93 3.85l1.05 2.45q1.05 2.8.7 5.25-.35 1.4-4.55 2.8 1.4.7 2.45 1.75 0 .7-.35 2.97-.35 2.28-1.05 6.13.7 2.1.7 4.9 0 .35-.35 1.22-.35.88-1.05 2.28l-1.4 3.15q-.35 2.45 0 3.85 1.05 5.6 1.4 4.2-1.05 2.45-2.1 8.05l.35 1.75-1.05 7.35q-.35 0-1.05 1.05l1.4 2.45q1.05 2.1 1.05 2.45l-1.75 2.45-1.75 2.8q0 1.4 1.05 1.4h-.7q0 1.4-.17 2.8-.18 1.4-.53 3.15-.35 1.4-.35 3.32v4.03q-.35 1.05-.35 3.85l3.85 2.8v2.8q0 .35 2.1 1.05.35 3.5 2.8 4.2l2.45-.7 2.1-.7h9.1q.7-1.4 1.58-2.98.87-1.57 2.27-2.97l2.45-2.8q1.05-1.05 2.8-1.4v-.35q0-.7-.7-.7l-1.75-.35q0-1.05 1.4-2.45-1.75-3.5-1.4-4.2.7-1.4 1.23-3.15.52-1.75.87-3.5l-.35-1.75v-4.38q0-1.57.35-3.67 0-.35-.7-1.75v-4.55q0-2.45 2.45-6.65 1.75 0 4.73.17 2.97.18 6.47.53l4.9 1.4q2.1.35 3.33 1.05 1.22.7 1.57.7l2.45-.7q1.75-.7 2.45 0 .35 0 3.33.52 2.97.53 3.32.88h4.55l.7 1.05-2.1 3.5v1.05q0 .7-.35 2.1l1.75 2.45-3.85 4.9-3.5-2.1 1.75 2.1-.35 1.75h-1.75q1.75 1.75 2.45 2.1-2.8 1.4-3.5 4.55 0 1.75.7 1.75l2.1-.7q3.15 3.85 2.8 4.9 0 .7-2.1 2.45l1.05 2.45q0 .7-.35 1.05l-.7 1.05v3.67q0 1.58-.35 2.63l-2.45 2.45v1.57q0 .88-.35 2.28-.35.7-1.57 2.62-1.23 1.93-2.98 4.73-.35.35-.87.7-.53.35-1.23 1.05v1.75q-.7 1.05-1.92 2.1-1.23 1.05-2.63 2.45l-1.75.7q-1.05.7-.7 1.75-.35.35-1.75.35l-2.1 2.1-2.1.7-1.92 1.92q-1.23 1.23-2.98 2.63-1.75 1.05-3.5 1.57-1.75.53-3.5.18l-1.05-.35q-.35 0-1.75.35l-4.2 1.05Zm49.7-203q0-1.05.35-1.4l.35.35v1.05Zm-53.55 3.15q0-.35.7-1.05l.7-.35q-.35-.35-1.75 0Zm4.55 1.75q1.05.7 1.75-1.4-.7-.7-1.4 0t-.35 1.4m-10.5 4.9q.7.35 2.45-.7-1.4-2.45-3.85-1.05.7 1.4 1.4 1.75m-14 20.65q.7-.35 1.4-.35-.7-.35-1.57-.7-.88-.35-1.93-1.05 0-1.75.35-2.1-.35-1.05-2.8-2.8-1.4-.35-1.4 1.75-.35 2.45-1.05 3.15 3.85 2.1 5.25 2.1Zm9.1.35q.35-.35 1.58-.88 1.22-.52 2.97-1.57-1.05-.35-1.75-.7l-1.4-.7-1.75-2.1q0 .35.18 1.22.17.88.17 1.58Zm66.15 7q.35-.35-.7-1.75-.35 0-1.05.7l1.05.35q.35 0 .53.35zm-11.2 4.9q.7-1.4.7-1.75 0-1.4-1.4-2.45l-1.05 2.1q0 1.05 1.75 2.1m-4.9 12.6.7-3.5-1.4.7Zm7.7-.35q.35-.7-.35-1.4-.35-.35-1.4 0 0 1.4 1.75 1.4m-69.65 68.25q1.05 0 1.4-2.1-1.05-.35-1.75.35-.35.35.35 1.75m-4.2 11.2 2.8-.35h2.8l.7-2.8-3.5-.35q-2.8 2.1-2.8 3.5m69.65 2.8q1.75-1.75 1.05-2.45l-3.15-.35q-.35 2.45 0 2.45Zm-.35 3.5.7-.35h1.05v-.7q0-.35-.17-.35-.18 0-.18-.35-1.4.35-1.4 1.75m-19.25 23.45q.7-.35 1.4-2.1-.7-.35-1.4.35t0 1.75m-22.05 12.6q.35-.7-.35-1.4t-1.4 0q0 .7 1.75 1.4"></path><rect width="116.2" height="218.05" x="-58.1" y="-109.03" fill="none" rx="0" ry="0" transform="translate(506.65 114)"></rect><path fill="#ffdc00" d="M625.85 224.275q-2.8 0-4.55-1.05-1.4-1.05-3.85-1.05l-.35.35h-.7q-.35.35-2.45-.7l-2.8-1.05-.35.35q0 .35-.35.35.7 0-2.8-1.75-1.75 0-4.2-1.4l-4.9-4.2q-.7-.35-1.92-.7-1.23-.35-2.63-.7-1.75-1.05-4.37-3.15-2.63-2.1-5.43-5.6l-.35-2.45-1.75-2.45-.7-4.9q-.35-1.4-1.22-3.33-.88-1.92-1.58-4.37-1.05-.35-2.8-2.8-2.1-4.9-2.1-6.65 0-.35.7-1.05.7-1.05 1.05-1.05-.7-1.05-3.5-2.8l-.35-3.85q2.45-1.75 3.15-1.75h2.45q1.05-.35 2.45-.7 1.4-.35 3.15-.7 1.75-.7 2.8 1.05.35 1.4 2.1 1.4.35 0 1.75-2.45l3.15-4.2q5.25 1.75 6.3 1.4l5.6-3.85h3.5v3.85l3.15 1.4-.7 5.25q0 .7 1.05 1.75t1.05 1.4q.35.35-.35 1.75l-1.05 1.75q.7 2.8 3.15 4.9.7 0 2.8.7 0 1.4 1.23 2.45 1.22 1.05 2.62.35l.7 3.15q.7 1.75 1.4 1.75l1.4-.7q.7-.7 1.4-.7l1.75.35q.7 0 1.05.35.35.35.7.35t1.4-1.05q1.4-.7 1.75-.7.35-.35 2.45.35l2.1.7 1.4-.7 1.05-.35 2.1.7q.7-.7.7-1.4 0-2.8 1.05-7.35l3.15-.35q1.75 0 2.1-1.4l-1.05-1.05-1.4-1.4q-.35-1.4-.7-2.98-.35-1.57-.7-3.32 0-1.05 1.05-2.1 1.05-.35 1.75-1.05l-1.4.35q-1.75 0-2.8-3.5l-1.4-4.2q-1.05-.7-1.75-1.75-1.4-1.4-1.4-2.8 0-.7.35-1.05-.35-.7-2.1 0l-1.75-4.9q-.35 0-.35.35-.7.7-1.05.7-.35-.35-1.4-.35l-.7-3.15-2.45-1.05-4.2-3.85q-.35-.7-1.22-1.05-.88-.35-2.28-1.05l-.35-2.8q-.35-.7-1.05-1.23-.7-.52-1.4-1.22h-1.75q-.35.35-1.75.35-.35.35-1.75-1.75-.7-1.4-1.4-2.28-.7-.87-1.4-1.22l-5.6-3.5-2.8-1.05-.35-3.15-5.95-3.15-1.4-2.45q-.7-1.75-2.8-1.75h-.35q-1.05-1.05-1.05-2.1-4.9-8.05-5.25-8.05l-2.1.7h-.35q-1.75 0-2.1-2.45l-1.05-4.2q-3.5 0-4.55-8.05l-3.15-1.4q-.35-2.45-.52-3.5-.18-1.05-.18-.7.35-3.15.7-2.45-.35-1.75-2.1-2.45-1.05 0-1.75-1.05-.35-3.85 0-7.53.35-3.67.7-7.52 0-1.05-.7-3.15l-1.05-2.45 1.05-1.4v-1.4q0-3.5 1.4-7.7.35 0 1.4-.18 1.05-.17 1.75-1.22l-2.1-4.55 4.55-8.75q2.8-4.9 4.55-4.9l2.1.35q.35 0 .7-.35 0-.35-.7-2.8h2.1l2.1-2.8q.7-.7 3.85-1.4l1.4-3.85h1.4l.7.7q.35.35.7 1.05 2.45-1.05 4.2-4.9l3.15-2.45h.53q.52 0 1.57-.35l1.75.35q1.05.35 1.75.35 1.05 0 3.5-2.45 2.8-2.1 3.15-2.1l3.15 1.75q0 1.05.35 1.75l5.6-2.8q1.05 0 5.25 3.15.7 1.05 0 4.9l1.05-.35.35-1.4q.7-.35 1.4-1.05.7-.7 1.75-1.4 0-.7 1.05-2.1.35.35.88.7.52.35 1.22 1.05 1.4 1.4 2.1 1.4.7-.7 2.1-1.05h.7q3.15 0 7 2.45l4.55 3.5.35 1.75q-.7 0-1.75 1.05 1.05 1.75 3.15 1.75v1.4q.7.35 2.45-.35.7 2.1 3.5 2.1.7 0 1.75 1.75-.35 1.05 0 2.45 3.85 7 3.85 6.3v.35q0 1.05-1.4 3.85-1.75 4.2-1.75 4.55 0 1.4 4.2 2.1 3.85.7 3.5 1.4l1.75 2.45q-.35.35-.35 1.4 0 1.05.7 3.15 1.4 3.15 1.4 4.55-.7.7-1.75 1.57-1.05.88-2.45 1.93-.7.35-2.27.7-1.58.35-4.38.7l-7.7 1.05q-.7.35-1.75.7l-2.1.7-4.2-1.4q-2.1.7-3.15 3.85-1.4 3.5-2.8 3.5-.35 0-1.05-1.75-1.05-1.75-1.4-1.75-.35 0-1.4 1.05l-2.1.35-.7-2.45q0-1.4 1.05-2.45.7-1.4.7-1.75l-1.75-2.1q1.4-1.05 2.45-4.2-2.1 0-5.25-1.05 0-.7-.35-1.93-.35-1.22-1.05-2.62l-1.4-3.85q-1.75-2.45-7-3.85l-3.15.35q-.7 0-1.57.17-.88.18-2.28.53-1.05 0-2.8-3.15-.7 0-.7 1.4l1.75 3.5q-3.85 3.15-6.3 2.8v5.25q-.7.7-1.05 1.4 0 .7.18 1.75.17 1.05.52 2.45.7 3.15.35 4.2 0 .35-.35.7-.7.7-.7 1.75 0 .7 1.05 1.75l.7 1.4q0 .35-2.45 2.8-2.45 2.45-2.45 2.8.35 6.65 5.25 6.65h1.05q1.05 0 2.1-.18 1.05-.17 2.1-.17 1.4 0 2.8.17 1.4.18 2.8.53v3.5q0 2.1 4.55 5.95.7 0 1.93.17 1.22.18 2.62.53l1.05 2.1q.7.35 2.45 2.1l1.4 2.8q.7 1.05 1.4 1.05 2.8-.35 3.5-.7.35 0 0 0 1.05 9.1 1.4 9.1l3.85-4.55h1.05l1.4 3.85q.35.35.53.35h.17l2.1-.7q1.4.35 1.05 3.5l3.5 1.75q.35 0 2.45 2.8 3.15 0 4.55 2.45.35.7.7 1.57.35.88 1.05 2.28l2.8 1.4v1.75q0 1.05.35 2.8 0 1.75.7 2.45.35 0 2.45-2.45 1.75.35 2.45 3.5.7 2.8 2.1 2.8.7 0 1.05-.35.35 1.05.35 2.27v2.63q0 1.05 1.4 1.92 1.4.88 2.45.53l1.4 4.55q.7 1.75-1.05 2.45.7.7 1.4.35l-.35 1.75 1.75 2.8.35 2.8q1.05 1.05 1.4 1.75 1.4 1.75 1.75 11.55-.35 1.05-.35 4.2l-1.4 2.1q.7 1.4 1.05 5.25l-1.4 1.4q0 2.1-3.85 11.55l-1.4-1.05q-1.05.35-1.05 2.1 0 4.55-.35 4.9l-3.5 2.1q.35 2.45 0 3.5l-5.6 4.55-1.4 2.1q-2.45 1.75-4.72 3.32-2.28 1.58-4.73 2.28-.35 0-1.22.17-.88.18-2.28.53-1.4 1.75-4.9 4.2l-3.5-1.05-2.1 1.05q-.7.7-4.2.7h-5.6q-1.4.35-2.62.7-1.23.35-2.98.7m-34.3-176.75q.35-.35 2.45-1.05l2.8.35 2.8.7q2.8-.7 2.8-3.15l-.35-1.4-4.9.7q-1.75 0-3.5 1.4-2.45-1.75-3.5-1.75.35.7.7 1.75t.7 2.45m-6.65-.7q1.05.7 1.75-1.4-.7-.7-1.4 0t-.35 1.4m71.05 1.05 1.4-1.4q0-.35-1.4 0Zm4.55 1.75q1.05.35 2.1-1.05-.35-.35-1.05-.35-1.05 0-1.05 1.4m-59.5 3.85q0-1.4-.7-1.4-.35-.7-1.4.35 0 1.05 2.1 1.05m-24.85 10.15q.35.35.53.7.17.35.52.7v-1.4Zm48.3 37.45q.7 0 1.4-.7t-.7-1.4q-.7.7-.7 2.1m-27.3 0q0-.7-.7-1.4t-1.4.7q0 1.05 2.1.7m49.7 44.45q.7 0 1.4-.7 0-1.05-.7-1.75-1.05.7-.7 2.45m14.7 4.9q0-.7-.7-1.4-1.05-.7-1.75.7.7 1.05 2.45.7m5.95 13.3q0-1.05-1.05-1.4-.7 0-1.4.7.7 1.05 2.45.7m-19.95 1.05q.35.35 0 .35l.35-.35Zm-52.85 7.7 1.4-1.05-.7-.7-.35.7q-.35.7-.35 1.05m12.25 39.55 1.4-.35q.35-.35 2.45-.35l4.2-4.9q-.7-.7-1.4-2.28-.7-1.57-1.4-3.67v-1.05q0-1.75 1.05-2.8l-3.5.35 2.1 7q0 2.8-.7 2.1l-.35-.35h-.7q-.7 1.05-3.85 4.2.7.7.7 2.1m17.5-11.55q0-.35-1.05-1.4l-.7.7.7.35q.7.35 1.05.35m-23.1 4.55q0-.7-.7-1.4-.35-.7-1.4.35 0 1.05 2.1 1.05m23.8.7q.35-.7-.35-1.4-.35-.7-1.75.7.7 1.05 2.1.7"></path><rect width="116.9" height="218.75" x="-58.45" y="-109.38" fill="none" rx="0" ry="0" transform="translate(626 115.4)"></rect></svg></svg>