<?xml version="1.0" standalone="no"?>
<!DOCTYPE svg PUBLIC "-//W3C//DTD SVG 20010904//EN"
 "http://www.w3.org/TR/2001/REC-SVG-20010904/DTD/svg10.dtd">
<svg version="1.0" xmlns="http://www.w3.org/2000/svg"
 width="1080.000000pt" height="1080.000000pt" viewBox="0 0 1080.000000 1080.000000"
 preserveAspectRatio="xMidYMid meet">

<g transform="translate(0.000000,1080.000000) scale(0.100000,-0.100000)"
fill="#000000" stroke="none">
<path d="M0 5400 l0 -5400 5400 0 5400 0 0 5400 0 5400 -5400 0 -5400 0 0
-5400z m3290 630 l0 -1480 -1475 0 -1475 0 0 1480 0 1480 1475 0 1475 0 0
-1480z m210 1120 l0 -280 115 0 115 0 0 -50 0 -50 -170 0 -170 0 0 330 0 330
55 0 55 0 0 -280z m470 0 l0 -280 115 0 115 0 0 -50 0 -50 -175 0 -175 0 0
330 0 330 60 0 60 0 0 -280z m449 52 c35 -125 67 -233 71 -241 8 -15 6 -22 91
282 l52 188 65 -3 65 -3 63 -224 c34 -123 66 -231 69 -240 4 -10 34 78 76 223
37 131 70 241 73 243 2 2 28 3 59 1 l54 -3 -95 -327 -95 -328 -63 0 c-51 0
-64 3 -68 18 -3 9 -35 125 -71 257 -36 132 -67 241 -68 242 -2 1 -34 -115 -72
-258 l-70 -260 -64 3 -63 3 -89 300 c-48 165 -91 312 -94 328 l-7 27 59 0 58
0 64 -228z m-557 -857 c31 -15 67 -38 79 -51 l22 -24 -24 -26 c-40 -43 -58
-49 -83 -25 -58 55 -159 66 -243 27 -92 -43 -142 -145 -123 -248 31 -163 215
-237 354 -143 20 14 40 25 44 25 4 -1 24 -16 45 -34 l38 -34 -40 -31 c-71 -57
-126 -75 -221 -75 -72 0 -94 4 -141 27 -69 33 -132 99 -167 175 -21 46 -26 71
-26 132 2 149 76 259 212 317 80 33 192 29 274 -12z m696 1 c68 -35 128 -97
161 -166 35 -73 36 -200 4 -272 -30 -66 -105 -143 -172 -175 -48 -24 -69 -28
-141 -28 -71 0 -94 4 -140 26 -239 113 -269 442 -54 590 68 46 116 59 209 56
63 -3 91 -9 133 -31z m1419 9 c28 -14 58 -34 67 -43 15 -17 13 -21 -19 -52
-33 -32 -37 -33 -58 -20 -74 47 -119 52 -161 19 -32 -25 -34 -66 -6 -101 11
-15 54 -39 100 -58 109 -44 154 -78 175 -134 64 -166 -92 -306 -278 -252 -61
18 -147 87 -147 119 0 9 19 27 42 41 l42 25 18 -27 c41 -63 156 -85 203 -37
30 29 32 73 6 107 -12 14 -59 41 -112 63 -145 60 -187 111 -177 216 13 131
170 201 305 134z m3874 -8 c30 -14 67 -39 81 -54 l27 -28 -39 -33 -39 -32 -51
32 c-151 94 -335 2 -348 -173 -6 -80 17 -137 75 -188 80 -71 198 -77 280 -15
17 13 35 24 38 24 4 0 25 -14 47 -31 l39 -32 -23 -24 c-12 -13 -52 -38 -87
-56 -57 -28 -76 -32 -146 -32 -67 0 -90 5 -140 28 -77 36 -147 110 -175 185
-32 84 -25 206 15 280 37 68 111 135 178 162 75 29 194 24 268 -13z m-4645
-219 l179 -242 3 242 2 242 55 0 55 0 0 -330 0 -330 -57 0 -58 1 -175 239
c-96 131 -178 239 -182 240 -5 0 -8 -108 -8 -240 l0 -240 -55 0 -55 0 0 330 0
330 58 0 59 0 179 -242z m1134 22 c0 -238 4 -264 53 -309 75 -69 220 -28 247
68 5 20 10 132 10 249 l0 212 55 0 55 0 0 -232 c0 -140 -5 -249 -11 -273 -7
-25 -29 -58 -58 -86 -128 -128 -370 -92 -442 66 -16 35 -19 70 -19 283 l0 242
55 0 55 0 0 -220z m712 -57 l3 -278 118 -3 117 -3 0 -49 0 -50 -175 0 -175 0
0 330 0 330 55 0 55 0 2 -277z m748 227 l0 -50 -85 0 -85 0 0 -280 0 -280 -55
0 -55 0 0 280 0 280 -90 0 -90 0 0 50 0 50 230 0 230 0 0 -50z m556 -265 c68
-170 127 -318 130 -327 5 -16 -2 -18 -54 -18 l-60 0 -27 70 -27 70 -153 0
-153 0 -28 -70 -27 -70 -59 0 c-32 0 -58 2 -58 5 0 3 54 141 121 307 67 167
125 313 130 326 8 21 14 23 75 20 l66 -3 124 -310z m544 76 l175 -238 3 238 2
239 55 0 55 0 0 -330 0 -330 -54 0 -55 0 -178 242 -178 241 -3 -241 -2 -242
-55 0 -55 0 0 330 0 330 58 -1 57 0 175 -238z m1325 132 c38 -60 73 -114 80
-121 9 -10 27 11 86 105 l75 118 67 3 68 3 -116 -173 -115 -173 0 -157 0 -158
-55 0 -55 0 0 154 0 155 -108 163 c-59 90 -111 169 -116 176 -5 9 8 12 57 12
l65 0 67 -107z m-6548 -968 c28 -14 58 -34 67 -43 15 -17 13 -21 -19 -52 -33
-32 -37 -33 -58 -20 -74 47 -119 52 -161 19 -32 -25 -34 -66 -6 -101 11 -15
54 -39 100 -58 109 -44 154 -78 175 -134 64 -166 -92 -306 -278 -252 -61 18
-147 87 -147 119 0 9 19 27 42 41 l42 25 18 -27 c41 -63 156 -85 203 -37 30
29 32 73 6 107 -12 14 -59 41 -112 63 -145 60 -187 111 -177 216 13 131 170
201 305 134z m2905 -10 c31 -15 67 -38 79 -51 l22 -24 -24 -26 c-40 -43 -58
-49 -83 -25 -58 55 -159 66 -243 27 -92 -43 -142 -145 -123 -248 31 -163 215
-237 354 -143 20 14 40 25 44 25 4 -1 24 -16 45 -34 l38 -34 -40 -31 c-71 -57
-126 -75 -221 -75 -72 0 -94 4 -141 27 -69 33 -132 99 -167 175 -21 46 -26 71
-26 132 2 149 76 259 212 317 80 33 192 29 274 -12z m1065 20 c20 -9 52 -27
71 -41 l34 -26 -38 -39 c-37 -38 -38 -39 -58 -20 -54 49 -122 56 -161 16 -57
-56 -23 -103 119 -166 133 -58 166 -98 166 -199 0 -61 -17 -96 -64 -138 -88
-77 -242 -67 -332 23 -24 25 -44 51 -44 59 0 8 19 25 42 39 l42 25 36 -41 c33
-37 41 -41 96 -45 77 -5 114 19 114 77 0 50 -25 72 -131 117 -108 46 -143 73
-164 128 -47 124 43 246 182 246 29 0 70 -7 90 -15z m-3317 -45 l0 -50 -140 0
-140 0 0 -90 0 -90 120 0 120 0 0 -50 0 -50 -120 0 -120 0 0 -90 0 -90 140 0
140 0 0 -50 0 -50 -195 0 -195 0 0 330 0 330 195 0 195 0 0 -50z m521 21 c81
-55 110 -160 70 -244 -21 -43 -50 -70 -98 -92 -22 -10 -20 -14 67 -148 50 -76
90 -140 90 -142 0 -3 -28 -5 -62 -5 l-63 1 -85 137 -86 137 -42 3 -42 3 0
-140 0 -141 -55 0 -55 0 0 331 0 330 163 -3 c153 -3 166 -5 198 -27z m314 12
c3 -10 47 -126 97 -258 49 -132 93 -243 97 -247 3 -4 51 112 105 257 l99 265
64 0 63 0 -18 -43 c-9 -23 -69 -172 -132 -330 l-115 -287 -64 2 -65 3 -128
320 c-70 176 -128 323 -128 327 0 5 27 8 59 8 47 0 60 -4 66 -17z m755 -313
l0 -330 -60 0 -60 0 0 330 0 330 60 0 60 0 0 -330z m1300 280 l0 -50 -135 0
-135 0 0 -90 0 -90 120 0 120 0 0 -50 0 -50 -120 0 -120 0 0 -90 0 -90 135 0
135 0 0 -50 0 -50 -195 0 -195 0 0 330 0 330 195 0 195 0 0 -50z m1102 -227
l3 -278 118 -3 117 -3 0 -49 0 -50 -175 0 -175 0 0 330 0 330 55 0 55 0 2
-277z m748 227 l0 -50 -85 0 -85 0 0 -280 0 -280 -55 0 -55 0 0 280 0 280 -90
0 -90 0 0 50 0 50 230 0 230 0 0 -50z m486 18 c28 -15 72 -50 97 -78 143 -159
92 -422 -101 -517 -53 -26 -67 -28 -204 -31 l-148 -4 0 332 0 332 153 -4 c142
-3 155 -5 203 -30z"/>
<path d="M470 6030 l0 -1350 1350 0 1350 0 0 1350 0 1350 -1350 0 -1350 0 0
-1350z m520 95 l0 -915 365 0 365 0 0 -90 0 -90 -455 0 -455 0 0 1005 0 1005
90 0 90 0 0 -915z m370 185 l0 -730 180 0 180 0 0 -95 0 -95 -270 0 -270 0 0
825 0 825 90 0 90 0 0 -730z m360 90 l0 -640 -90 0 -90 0 0 640 0 640 90 0 90
0 0 -640z m1100 -365 l0 -1005 -90 0 -90 0 -2 913 -3 912 -362 3 -363 2 0 90
0 90 455 0 455 0 0 -1005z m-370 -185 l0 -820 -90 0 -90 0 0 730 0 730 -180 0
-180 0 0 90 0 90 270 0 270 0 0 -820z m-360 -180 l0 -640 -90 0 -90 0 0 640 0
640 90 0 90 0 0 -640z"/>
<path d="M4325 6255 c-51 -18 -120 -91 -134 -141 -23 -82 -2 -174 52 -232 51
-55 149 -83 223 -63 105 28 168 112 168 221 0 166 -151 271 -309 215z"/>
<path d="M8107 6103 c-31 -81 -55 -149 -53 -151 2 -1 53 -1 114 0 l110 3 -54
144 c-30 80 -56 146 -58 148 -1 2 -28 -63 -59 -144z"/>
<path d="M4600 5115 l0 -95 70 0 c78 0 133 18 149 48 20 38 13 82 -18 113 -28
28 -34 29 -115 29 l-86 0 0 -95z"/>
<path d="M9310 4979 l0 -232 73 6 c85 6 131 23 170 63 49 49 61 82 62 165 0
67 -3 81 -30 124 -43 70 -113 105 -206 105 l-69 0 0 -231z"/>
</g>
</svg>
